<svg width="27" height="18" viewBox="0 0 27 18" fill="none" xmlns="http://www.w3.org/2000/svg">
<g clip-path="url(#clip0_103_188)">
<path fill-rule="evenodd" clip-rule="evenodd" d="M2.25 0C1.00736 0 0 1.00736 0 2.25V15.75C0 16.9926 1.00736 18 2.25 18H24.75C25.9926 18 27 16.9926 27 15.75V2.25C27 1.00736 25.9926 0 24.75 0H2.25ZM2.67325 8.29037C3.05213 8.29037 3.36049 8.57962 3.36049 8.9914C3.36049 9.40318 3.05259 9.6922 2.67325 9.6922C2.29437 9.6922 1.98602 9.39333 1.98602 8.9914C1.98602 8.58466 2.29437 8.29037 2.67325 8.29037ZM3.36602 9.89809V10.2167H3.9878V7.76614H3.36625V8.07486C3.17934 7.85958 2.90671 7.72217 2.58314 7.72217C1.89545 7.72217 1.34995 8.2709 1.34995 8.9914C1.34995 9.71647 1.8754 10.2556 2.5677 10.2556C2.90072 10.2556 3.17911 10.1186 3.36602 9.89809ZM6.72844 9.38852C6.72844 9.59418 6.78882 9.6725 7.00638 9.6725L7.00615 9.67273H7.1329V10.2169H6.80427C6.28895 10.2169 6.09214 10.0011 6.09214 9.5012V8.30044H5.2717V10.2164H4.63471V8.30044H4.28095V7.76568H4.63471V7.53345C4.63471 7.02388 4.88222 6.85716 5.40767 6.85716H5.71418V7.33237H5.57452C5.35213 7.33237 5.27101 7.41093 5.27101 7.61705V7.76591H6.09145V7.16817H6.72844V7.76591H7.12783V8.30044H6.72844V9.38852ZM8.66385 8.26105C8.97705 8.26105 9.24508 8.45228 9.29048 8.77062H9.29025H8.02732C8.09277 8.44724 8.35043 8.26105 8.66385 8.26105ZM8.674 9.72174C8.33545 9.72174 8.06765 9.51562 8.02202 9.15308H9.95789C9.96803 9.10385 9.97287 9.05025 9.97287 8.99621C9.97287 8.26105 9.42737 7.72194 8.67446 7.72194C7.92638 7.72194 7.36037 8.25624 7.36037 8.99621C7.36037 9.7364 7.89596 10.2556 8.65878 10.2556C9.29048 10.2556 9.77053 9.92236 9.9224 9.40295H9.2702C9.14921 9.59899 8.94179 9.72174 8.674 9.72174ZM13.3351 8.29037C13.7139 8.29037 14.0223 8.59428 14.0223 8.9914C14.0223 9.38852 13.7139 9.6922 13.3351 9.6922C12.9562 9.6922 12.6478 9.39333 12.6478 8.9914C12.6478 8.58466 12.9562 8.29037 13.3351 8.29037ZM12.6425 7.76614H12.021V11.225H12.6628V9.92763C12.8444 10.1333 13.1071 10.256 13.4256 10.256C14.1129 10.256 14.6584 9.70708 14.6584 8.98636C14.6584 8.26632 14.123 7.72217 13.4408 7.72217C13.1071 7.72217 12.8292 7.85912 12.6425 8.08471V7.76614ZM16.2112 8.29037C16.5906 8.29037 16.8985 8.57962 16.8985 8.9914C16.8985 9.40318 16.5906 9.6922 16.2112 9.6922C15.8323 9.6922 15.524 9.39333 15.524 8.9914C15.524 8.58466 15.8323 8.29037 16.2112 8.29037ZM16.904 9.89809V10.2167H17.5253V7.76614H16.904V8.07486C16.7171 7.85958 16.4442 7.72217 16.1209 7.72217C15.4334 7.72217 14.8879 8.2709 14.8879 8.9914C14.8879 9.71647 15.4134 10.2556 16.1057 10.2556C16.4387 10.2556 16.7171 10.1186 16.904 9.89809ZM11.4464 7.7224C11.059 7.7224 10.9009 8.00638 10.9009 8.00638V7.7666H10.2794V10.2171H10.921V8.76627C10.9203 8.51023 11.056 8.31899 11.2708 8.29082C11.4856 8.26265 11.7193 8.40259 11.7193 8.40259V7.77736C11.7193 7.77736 11.6121 7.7224 11.4464 7.7224ZM18.8588 11.2172L20.4277 7.76614H19.7559L19.1307 9.18057L18.5214 7.76614H17.7714L18.8131 9.88297L18.1971 11.2172H18.8588ZM23.8807 6.83998L25.4363 7.71049V7.71072C25.54 7.7673 25.6264 7.8505 25.6866 7.95162C25.7468 8.05274 25.7785 8.16807 25.7785 8.28556C25.7785 8.40304 25.7468 8.51838 25.6866 8.6195C25.6264 8.72062 25.54 8.80382 25.4363 8.8604L23.8807 9.73113C23.4242 9.98718 22.8536 9.66724 22.8536 9.15583V9.03766C22.8536 8.92636 22.7298 8.85696 22.6307 8.91261L21.2832 9.66701C21.2607 9.67933 21.242 9.69742 21.2289 9.7194C21.2159 9.74137 21.209 9.76642 21.209 9.79194C21.209 9.81745 21.2159 9.8425 21.2289 9.86448C21.242 9.88645 21.2607 9.90454 21.2832 9.91687L22.6307 10.671C22.7296 10.7267 22.8536 10.6573 22.8536 10.5462V10.3241C22.8536 10.2276 22.9612 10.1672 23.0474 10.2155L23.341 10.3804C23.3761 10.3998 23.4054 10.4281 23.4259 10.4624C23.4464 10.4967 23.4573 10.5358 23.4576 10.5758V10.6651C23.4576 11.1767 22.8863 11.496 22.4298 11.2404L20.8741 10.3699C20.7704 10.3133 20.6839 10.23 20.6237 10.1288C20.5634 10.0276 20.5316 9.91216 20.5316 9.79457C20.5316 9.67698 20.5634 9.56155 20.6237 9.46035C20.6839 9.35914 20.7704 9.27588 20.8741 9.21927L22.4298 8.34854C22.8868 8.09249 23.4576 8.41243 23.4576 8.92384V9.04201C23.4576 9.15331 23.5814 9.22248 23.6805 9.16706L25.0277 8.41289C25.1268 8.35747 25.1268 8.21868 25.0277 8.16326L23.6805 7.40887C23.5814 7.35322 23.4574 7.42284 23.4574 7.53391V7.75606C23.4574 7.85248 23.35 7.91294 23.2638 7.86439L22.9699 7.69995C22.898 7.65987 22.8536 7.58521 22.8536 7.5046V7.41528C22.8536 6.90365 23.4244 6.58439 23.8807 6.83998Z" fill="white"/>
</g>
<defs>
<clipPath id="clip0_103_188">
<rect width="27" height="18" fill="white"/>
</clipPath>
</defs>
</svg>
