<svg width="27" height="18" viewBox="0 0 27 18" fill="none" xmlns="http://www.w3.org/2000/svg">
<g clip-path="url(#clip0_103_149)">
<path fill-rule="evenodd" clip-rule="evenodd" d="M12.4357 11.9781H13.3828C14.0463 11.9781 14.7046 11.8124 14.7046 11.0097C14.7046 10.2095 14.0278 10.0577 13.4254 10.0577H11.0001L10.0346 11.0049L9.10083 10.0577H6.04803V12.9473H9.05458L10.0258 11.9908L10.9605 12.9473H12.4357V11.9781ZM12.4194 10.6497H13.4091C13.6831 10.6497 13.8733 10.7513 13.8734 11.004C13.8733 11.254 13.6919 11.3856 13.4003 11.3856H12.4194V10.6497ZM6.80401 11.1751V10.6497H8.70696L9.53716 11.4918L8.67013 12.3395H6.80401V11.7646H8.47029V11.1751H6.80401ZM11.6769 10.3538V12.6704L10.5116 11.4934L11.6769 10.3538Z" fill="white"/>
<path fill-rule="evenodd" clip-rule="evenodd" d="M18.0627 12.3745C18.0596 12.1198 18.0441 11.9881 17.9369 11.8471C17.8721 11.7629 17.7341 11.6612 17.5652 11.6045C17.765 11.5322 18.1031 11.297 18.1032 10.8358C18.1032 10.5062 17.9524 10.3258 17.7129 10.1941C17.4638 10.0733 17.184 10.0578 16.7996 10.0578H15.0473V12.9473H15.8099V11.892H16.621C16.898 11.892 17.0672 11.9168 17.1779 12.0202C17.305 12.1411 17.3027 12.3617 17.301 12.5314C17.3008 12.5502 17.3006 12.5685 17.3006 12.5858V12.9473H18.0627V12.3745ZM16.7738 10.6498C16.9088 10.6498 17.0442 10.6524 17.1359 10.702C17.2343 10.7488 17.2931 10.8382 17.2931 10.9618C17.2931 11.0854 17.2343 11.185 17.1359 11.2391C17.0345 11.2939 16.9089 11.2987 16.7613 11.2987H15.8391V10.6498H16.7738Z" fill="white"/>
<path d="M19.2949 10.6553H21.0723V10.0577H18.539V12.9473H21.0723V12.3477L19.2949 12.3452V11.7702H21.0289V11.1806H19.2949V10.6553Z" fill="white"/>
<path d="M21.5444 12.9473H23.0227C23.7882 12.9473 24.2151 12.6571 24.2152 12.0354C24.2152 11.7381 24.1358 11.5624 23.9881 11.4233C23.8162 11.2649 23.5332 11.1999 23.1213 11.191L22.7127 11.1808C22.5834 11.1808 22.4974 11.1734 22.4173 11.1481C22.3219 11.116 22.2513 11.0418 22.2513 10.9328C22.2513 10.8412 22.2821 10.7718 22.3653 10.725C22.4416 10.6775 22.5313 10.6727 22.6693 10.6727H24.0618V10.0578H22.5401C21.7443 10.0578 21.4548 10.4989 21.4548 10.9181C21.4548 11.7724 22.2311 11.7917 22.912 11.8087C22.9598 11.8099 23.0071 11.811 23.0536 11.8125C23.1857 11.8125 23.2659 11.8324 23.3239 11.8765C23.3759 11.9166 23.4166 11.9834 23.4166 12.0677C23.4166 12.1464 23.379 12.2114 23.3269 12.256C23.2629 12.3103 23.1608 12.3276 23.0168 12.3276H21.5444V12.9473Z" fill="white"/>
<path fill-rule="evenodd" clip-rule="evenodd" d="M2.25 0C1.00736 0 0 1.00736 0 2.25V7.94801H0.824349L1.119 7.30364H2.69937L2.99101 7.94801H4.53489V5.68348L5.63835 7.94801H6.30478L7.40543 5.68548L7.40827 7.94801H8.18627V5.05912H6.92253L6.00998 7.01887L5.01667 5.05912H3.7778V7.79429L2.48696 5.05912H1.3592L0 7.94801L3.46161e-05 6.41568L0.919197 4.5H2.89855L3.15356 4.97583V4.5H5.47447L5.98222 5.54066L6.47661 4.5H13.8453C14.1802 4.5 14.4814 4.5568 14.7025 4.73527V4.5H16.7195V4.73527C17.0669 4.56212 17.4969 4.5 17.9862 4.5H20.9089L21.1801 4.97583V4.5H23.3438L23.6391 4.97583V4.5H25.7478V8.52895H23.617L23.2144 7.91948V8.52899H20.5555L20.2667 7.88734H19.612L19.3167 8.52899H17.9369C17.3955 8.52899 16.9841 8.41273 16.7196 8.28376V8.52899H13.4397V7.61467C13.4397 7.48559 13.4148 7.47839 13.3288 7.47567H13.2061L13.209 8.52895H6.8677V8.03107L6.63972 8.53122H5.3151L5.08736 8.03856V8.52918H2.5357L2.24406 7.8875H1.58933L1.29693 8.52918H0V15.75C0 16.9926 1.00736 18 2.25 18H24.75C25.9926 18 27 16.9926 27 15.75V11.4719C26.9968 11.4682 26.9936 11.4644 26.9905 11.4607C26.973 11.4397 26.9557 11.4191 26.9296 11.4005C26.7606 11.2421 26.4834 11.1771 26.0684 11.1678L25.6569 11.1578C25.5305 11.1578 25.4446 11.1504 25.3645 11.1251C25.2661 11.0929 25.1985 11.0187 25.1985 10.9098C25.1985 10.8181 25.2292 10.7488 25.3093 10.7019C25.3866 10.6545 25.4784 10.6497 25.6165 10.6497L27 10.6498V2.25C27 1.00736 25.9926 0 24.75 0H2.25ZM1.40424 6.70396L1.92075 5.5523L2.44037 6.70396H1.40424ZM24.5028 12.9302H25.9686C26.4547 12.9302 26.8141 12.806 26.9984 12.5607V13.3119C26.6943 13.4455 26.2946 13.4977 25.8853 13.4977H23.9185V13.2396C23.6907 13.4061 23.2792 13.4977 22.8856 13.4977H16.6851V12.5659C16.6851 12.4517 16.6727 12.4469 16.5471 12.4469H16.4486V13.4979H14.4076V12.4098C14.0659 12.5441 13.6786 12.5563 13.3503 12.5515H13.107V13.5L10.6325 13.498L10.0241 12.871L9.37834 13.498H5.36391V9.46579H9.45554L10.0426 10.0829L10.6693 9.46579H13.4084C13.7249 9.46579 14.2445 9.49599 14.4781 9.70181V9.46579H16.9255C17.1553 9.46579 17.6537 9.50799 17.9489 9.70181V9.46579H21.6594V9.70181C21.8439 9.5407 22.2338 9.46579 22.5661 9.46579H24.6438V9.70181C24.8618 9.55815 25.1698 9.46579 25.5938 9.46579H26.9985V10.0407H25.4865C24.69 10.0407 24.3975 10.4819 24.3975 10.9009C24.3975 11.7556 25.1742 11.7747 25.8576 11.7915C25.9054 11.7927 25.9527 11.7939 25.9993 11.7953C26.1315 11.7953 26.2118 11.8154 26.2667 11.8595C26.3227 11.8995 26.3595 11.9663 26.3595 12.0506C26.3601 12.1221 26.3275 12.1905 26.2698 12.239C26.2087 12.2933 26.1074 12.3105 25.9627 12.3105H24.5028V12.9302Z" fill="white"/>
<path fill-rule="evenodd" clip-rule="evenodd" d="M18.013 5.05895C17.4899 5.05895 17.1056 5.16528 16.8603 5.39585C16.5339 5.70537 16.4511 6.09702 16.4513 6.52552C16.4513 7.05082 16.5899 7.38308 16.8567 7.62834C17.1212 7.87366 17.5884 7.94788 17.9573 7.94788H18.8455L19.1321 7.3035H20.7088L21.0042 7.94788H22.55V5.77965L23.9887 7.94788H25.0643V5.05908H24.2868V7.07103L22.9526 5.05908H21.7969V7.79149L20.5118 5.05905H19.3746L18.3049 7.33088H17.9639C17.7641 7.33088 17.5517 7.29621 17.4348 7.18189C17.2938 7.03612 17.2262 6.81298 17.2262 6.50347C17.2262 6.20069 17.3149 5.97074 17.4444 5.84913C17.595 5.71542 17.7515 5.67795 18.0284 5.67795H18.7478V5.05895H18.013ZM19.4029 6.70396L19.9253 5.5523L20.4506 6.70396H19.4029Z" fill="white"/>
<path d="M16.0736 5.05899H15.2991V7.94788H16.0736V5.05899Z" fill="white"/>
<path fill-rule="evenodd" clip-rule="evenodd" d="M13.5532 5.05899H11.8074L11.8075 7.94788H12.5665V6.89709H13.3813C13.6546 6.89709 13.8237 6.91921 13.9346 7.02077C14.0587 7.1456 14.0565 7.36015 14.0548 7.52854C14.0546 7.54752 14.0544 7.56592 14.0544 7.58354L14.0573 7.94785H14.8228V7.38032C14.8228 7.12234 14.8044 6.99399 14.6972 6.85029C14.6296 6.76615 14.4877 6.66455 14.3216 6.60703C14.5184 6.53554 14.8564 6.29761 14.8564 5.83697C14.8564 5.5148 14.7124 5.3264 14.4723 5.19736C14.2269 5.06835 13.941 5.05899 13.5532 5.05899ZM14.0534 5.99132C14.0534 6.11756 13.9954 6.21922 13.8969 6.26596C13.7926 6.32358 13.6692 6.32555 13.5215 6.32552H12.5994V5.68384H13.534C13.6663 5.68384 13.8043 5.68923 13.894 5.7359C13.9924 5.778 14.0534 5.8676 14.0534 5.99132Z" fill="white"/>
<path d="M11.2832 5.05899H8.74757V7.94785H11.2832V7.35041H9.50667V6.77348H11.2405V6.18129H9.50667V5.66057H11.2832V5.05899Z" fill="white"/>
</g>
<defs>
<clipPath id="clip0_103_149">
<rect width="27" height="18" fill="white"/>
</clipPath>
</defs>
</svg>
