<svg width="27" height="18" viewBox="0 0 27 18" fill="none" xmlns="http://www.w3.org/2000/svg">
<g clip-path="url(#clip0_103_93)">
<path d="M16.4 10.8216C16.4 11.2369 16.76 11.5114 17.3272 11.5114V11.5164C17.3482 11.5183 17.3693 11.5201 17.3908 11.521C18.0284 11.5471 18.5668 11.0508 18.5929 10.4131V10.0261L17.4109 10.1007C16.7471 10.1405 16.4 10.3911 16.4 10.8216Z" fill="white"/>
<path d="M12.563 6.31676H11.337V9.03714H12.5589C13.4861 9.03714 14.0135 8.54082 14.0135 7.67489C14.0135 6.80896 13.4861 6.31676 12.563 6.31676Z" fill="white"/>
<path fill-rule="evenodd" clip-rule="evenodd" d="M2.25 0C1.00736 0 0 1.00736 0 2.25V15.75C0 16.9926 1.00736 18 2.25 18H24.75C25.9926 18 27 16.9926 27 15.75V2.25C27 1.00736 25.9926 0 24.75 0H2.25ZM22.8823 12.5397C22.456 13.7391 21.9679 14.1348 20.9309 14.1348V14.1403C20.7959 14.1408 20.6605 14.1321 20.5265 14.1138V13.2904C20.5924 13.2991 20.7547 13.3078 20.8385 13.3078C21.2771 13.3398 21.6669 13.0301 21.735 12.596L21.8316 12.2927L20.0297 7.30665H21.1417L22.3942 11.3541H22.4162L23.6686 7.30117H24.75L22.8823 12.5397ZM18.6107 11.4497C18.2873 12.0064 17.6853 12.3417 17.0417 12.3243L17.0413 12.3293C16.0523 12.3293 15.3625 11.7406 15.3634 10.849C15.3634 9.96985 16.0313 9.46438 17.2663 9.38982L18.5929 9.31068V8.93284C18.5929 8.37477 18.2283 8.07149 17.5778 8.07149C17.1149 8.02117 16.6858 8.31896 16.5715 8.77045H15.6132C15.6438 7.88257 16.4791 7.23667 17.6085 7.23667C18.8262 7.23667 19.6171 7.87388 19.6171 8.86285V12.273H18.6327V11.4497H18.6107ZM10.2735 12.2717V5.42019L12.8448 5.42705C12.9147 5.42385 12.9843 5.42339 13.0543 5.42659C14.2404 5.48377 15.1557 6.49104 15.099 7.67718C15.1017 7.74534 15.1013 7.81304 15.0976 7.88119C15.0331 9.08059 14.0089 10.0005 12.8095 9.936H11.337V12.2717H10.2735ZM5.75843 6.9181C6.03236 6.81051 6.37156 6.67729 6.74346 6.69872L6.74438 6.6946C7.28918 6.71382 7.79282 6.98736 8.10662 7.43291C7.61442 7.73619 7.3116 8.26956 7.30245 8.84776C7.30565 9.50326 7.69493 10.0947 8.29554 10.3573C8.17798 10.731 8.00644 11.0855 7.78596 11.4094C7.47307 11.8668 7.15195 12.3156 6.64237 12.3243C6.4019 12.3287 6.23906 12.2586 6.06978 12.1858C5.89257 12.1095 5.70831 12.0301 5.42055 12.0301C5.11948 12.0301 4.9266 12.112 4.74098 12.1908C4.57971 12.2592 4.42393 12.3253 4.20743 12.3334C3.71569 12.3513 3.34151 11.8504 3.02953 11.3929C2.39232 10.4703 1.9047 8.79149 2.56386 7.65751C2.87355 7.09669 3.45724 6.74218 4.09765 6.72571C4.3729 6.7205 4.63674 6.82499 4.86646 6.91598C5.04027 6.98481 5.19455 7.04592 5.31946 7.04592C5.43299 7.04592 5.5822 6.98731 5.75843 6.9181ZM5.25451 6.61638C5.68495 6.62416 6.09436 6.43066 6.36196 6.09353L6.36104 6.09216C6.63962 5.76098 6.77823 5.33464 6.74804 4.90282C6.32262 4.94262 5.92923 5.14572 5.65019 5.46959C5.36978 5.78339 5.22706 6.19646 5.25451 6.61638Z" fill="white"/>
</g>
<defs>
<clipPath id="clip0_103_93">
<rect width="27" height="18" fill="white"/>
</clipPath>
</defs>
</svg>
