<svg width="27" height="18" viewBox="0 0 27 18" fill="none" xmlns="http://www.w3.org/2000/svg">
<g clip-path="url(#clip0_103_151)">
<path fill-rule="evenodd" clip-rule="evenodd" d="M5.64493 9.00045C5.64614 5.58711 8.4053 2.82143 11.8104 2.82037C15.2164 2.82159 17.9763 5.58703 17.9767 9.00045C17.9763 12.4133 15.2163 15.1787 11.8104 15.1797C8.40506 15.1785 5.64578 12.4132 5.64493 9.00045ZM10.4223 5.32828C8.95638 5.89347 7.91677 7.3158 7.91353 8.98375C7.91672 10.6519 8.95638 12.0735 10.4223 12.6384V5.32828ZM13.2195 5.32848V12.6402C14.6861 12.0753 15.7273 10.6534 15.7299 8.98419C15.7273 7.31548 14.6861 5.89234 13.2195 5.32848Z" fill="white"/>
<path fill-rule="evenodd" clip-rule="evenodd" d="M0 2.25C0 1.00736 1.00736 0 2.25 0H24.75C25.9926 0 27 1.00736 27 2.25V15.75C27 16.9926 25.9926 18 24.75 18H2.25C1.00736 18 0 16.9926 0 15.75V2.25ZM14.9596 2.25C18.6422 2.24879 22.0032 5.03196 22.0032 9.05869C22.0032 12.7408 18.6419 15.7676 14.9596 15.7499H11.7905C8.06414 15.7677 4.99682 12.7417 4.99682 9.05869C4.99682 5.03282 8.06405 2.24866 11.7905 2.25H14.9596Z" fill="white"/>
</g>
<defs>
<clipPath id="clip0_103_151">
<rect width="27" height="18" fill="white"/>
</clipPath>
</defs>
</svg>
