<svg width="27" height="18" viewBox="0 0 27 18" fill="none" xmlns="http://www.w3.org/2000/svg">
<g clip-path="url(#clip0_103_153)">
<path d="M4.1009 9.90732C3.88315 10.0887 3.59282 10.1974 3.15731 10.1974H2.93955V7.83866H3.12097C3.55649 7.83866 3.84681 7.91123 4.06462 8.12888C4.31861 8.34649 4.46385 8.6733 4.46385 9.00001C4.50013 9.32662 4.35499 9.68936 4.1009 9.90732Z" fill="white"/>
<path d="M22.8267 8.85467H23.0443C23.4798 8.85467 23.7339 8.67335 23.7339 8.31061C23.7339 7.94746 23.4798 7.76609 23.0443 7.76609H22.8267V8.85467Z" fill="white"/>
<path fill-rule="evenodd" clip-rule="evenodd" d="M0 2.25C0 1.00736 1.00736 0 2.25 0H24.75C25.9926 0 27 1.00736 27 2.25V15.75C27 16.9926 25.9926 18 24.75 18H2.25C1.00736 18 0 16.9926 0 15.75V2.25ZM16.0764 8.99C16.0785 8.50641 15.8972 8.02212 15.5323 7.65717C15.1666 7.29147 14.6811 7.1103 14.1965 7.11321L14.1895 7.11306C13.1372 7.11306 12.3025 7.94754 12.3025 9.00014C12.3025 10.0423 13.1475 10.8871 14.1895 10.8871C15.2421 10.8871 16.0767 10.0524 16.0767 9.00014L16.0764 8.99ZM11.1289 10.197C11.4093 10.191 11.6696 10.0807 11.9516 9.79838L11.9522 9.81737L11.9516 9.81635L11.9516 9.83361L11.9526 9.83257L11.9759 10.6332C11.6493 10.7784 11.3951 10.8508 11.1048 10.8508L11.0928 10.8506L11.0837 10.8503L11.0767 10.8506L11.0685 10.8508C10.0162 10.8508 9.18126 10.0525 9.18126 9.00023C9.18126 8.58273 9.32855 8.19595 9.57225 7.88008C9.65039 7.77078 9.74254 7.67527 9.83869 7.58875C10.1723 7.29607 10.6073 7.10968 11.0686 7.07671C11.3951 7.07671 11.6493 7.14932 11.9394 7.29441V8.12905C11.6493 7.83873 11.3952 7.72987 11.0686 7.72987C10.7661 7.72987 10.503 7.85514 10.2988 8.04901C10.081 8.3032 9.94358 8.60075 9.94358 8.96379C9.94358 9.68501 10.4458 10.1909 11.1289 10.197ZM11.9522 9.81737L11.9526 9.83257C11.957 9.8275 11.9548 9.82247 11.9522 9.81737ZM18.459 7.59641L17.6371 9.61699L16.6935 7.22167H15.9316L17.4194 10.887H17.8185L19.379 7.22167H18.6171L18.459 7.59641ZM19.6694 10.7783V7.22167H21.6653V7.83871H20.3952V8.60073H21.6292V9.21786H20.3952V10.1974H21.6653V10.7783H19.6694ZM3.26631 7.22167H2.25V10.7783H3.26626C3.81053 10.7783 4.20966 10.633 4.53626 10.379C4.93539 10.0524 5.18953 9.54442 5.18953 9.00016C5.18958 7.94746 4.42736 7.22167 3.26631 7.22167ZM5.51639 7.22137H6.2059V10.7779H5.51639V7.22137ZM7.94764 8.60076C7.51223 8.45563 7.40322 8.34667 7.40322 8.1653C7.40322 7.94755 7.62098 7.76612 7.91131 7.76612C8.12906 7.76612 8.31048 7.83874 8.49195 8.0565L8.85495 7.58475C8.56452 7.33061 8.20178 7.18563 7.80255 7.18563C7.18547 7.18563 6.67739 7.62114 6.67739 8.20159C6.67739 8.70977 6.89534 8.92747 7.54846 9.18151L7.61829 9.2076C7.85694 9.29663 7.95384 9.33279 8.02041 9.39922C8.1653 9.47169 8.23802 9.61698 8.23802 9.76196C8.23802 10.0523 8.02041 10.2701 7.6936 10.2701C7.36669 10.2701 7.07662 10.0887 6.93143 9.79835L6.49592 10.2339C6.82267 10.7056 7.22185 10.9233 7.72993 10.9233C8.45567 10.9233 8.9635 10.4516 8.9635 9.76196C8.9636 9.14518 8.74605 8.89114 7.94764 8.60076ZM24.4597 8.27422C24.4597 8.81844 24.1693 9.18148 23.6251 9.29018L24.75 10.7783H23.9152L22.9356 9.3628H22.8266V10.7783H22.1371V7.22167H23.1896C23.9879 7.22167 24.4597 7.6211 24.4597 8.27422Z" fill="white"/>
</g>
<defs>
<clipPath id="clip0_103_153">
<rect width="27" height="18" fill="white"/>
</clipPath>
</defs>
</svg>
