<svg xmlns="http://www.w3.org/2000/svg" fill="none" viewBox="0 0 132 132" height="132" width="132">
<g clip-path="url(#clip0_684_48)">
<path fill="white" d="M0.252686 0.25293H4.76993V4.77017H0.252686V0.25293ZM4.76993 0.25293H9.28717V4.77017H4.76993V0.25293ZM9.28717 0.25293H13.8044V4.77017H9.28717V0.25293ZM13.8044 0.25293H18.3217V4.77017H13.8044V0.25293ZM18.3217 0.25293H22.8389V4.77017H18.3217V0.25293ZM22.8389 0.25293H27.3561V4.77017H22.8389V0.25293ZM27.3561 0.25293H31.8734V4.77017H27.3561V0.25293ZM36.3906 0.25293H40.9079V4.77017H36.3906V0.25293ZM40.9079 0.25293H45.4251V4.77017H40.9079V0.25293ZM45.4251 0.25293H49.9423V4.77017H45.4251V0.25293ZM49.9423 0.25293H54.4596V4.77017H49.9423V0.25293ZM72.5285 0.25293H77.0458V4.77017H72.5285V0.25293ZM77.0458 0.25293H81.563V4.77017H77.0458V0.25293ZM81.563 0.25293H86.0803V4.77017H81.563V0.25293ZM86.0803 0.25293H90.5975V4.77017H86.0803V0.25293ZM90.5975 0.25293H95.1148V4.77017H90.5975V0.25293ZM99.632 0.25293H104.149V4.77017H99.632V0.25293ZM104.149 0.25293H108.666V4.77017H104.149V0.25293ZM108.666 0.25293H113.184V4.77017H108.666V0.25293ZM113.184 0.25293H117.701V4.77017H113.184V0.25293ZM117.701 0.25293H122.218V4.77017H117.701V0.25293ZM122.218 0.25293H126.735V4.77017H122.218V0.25293ZM126.735 0.25293H131.253V4.77017H126.735V0.25293ZM0.252686 4.77017H4.76993V9.28741H0.252686V4.77017ZM27.3561 4.77017H31.8734V9.28741H27.3561V4.77017ZM36.3906 4.77017H40.9079V9.28741H36.3906V4.77017ZM45.4251 4.77017H49.9423V9.28741H45.4251V4.77017ZM49.9423 4.77017H54.4596V9.28741H49.9423V4.77017ZM58.9768 4.77017H63.4941V9.28741H58.9768V4.77017ZM63.4941 4.77017H68.0113V9.28741H63.4941V4.77017ZM77.0458 4.77017H81.563V9.28741H77.0458V4.77017ZM90.5975 4.77017H95.1148V9.28741H90.5975V4.77017ZM99.632 4.77017H104.149V9.28741H99.632V4.77017ZM126.735 4.77017H131.253V9.28741H126.735V4.77017ZM0.252686 9.28741H4.76993V13.8047H0.252686V9.28741ZM9.28717 9.28741H13.8044V13.8047H9.28717V9.28741ZM13.8044 9.28741H18.3217V13.8047H13.8044V9.28741ZM18.3217 9.28741H22.8389V13.8047H18.3217V9.28741ZM27.3561 9.28741H31.8734V13.8047H27.3561V9.28741ZM45.4251 9.28741H49.9423V13.8047H45.4251V9.28741ZM54.4596 9.28741H58.9768V13.8047H54.4596V9.28741ZM58.9768 9.28741H63.4941V13.8047H58.9768V9.28741ZM68.0113 9.28741H72.5285V13.8047H68.0113V9.28741ZM72.5285 9.28741H77.0458V13.8047H72.5285V9.28741ZM81.563 9.28741H86.0803V13.8047H81.563V9.28741ZM86.0803 9.28741H90.5975V13.8047H86.0803V9.28741ZM90.5975 9.28741H95.1148V13.8047H90.5975V9.28741ZM99.632 9.28741H104.149V13.8047H99.632V9.28741ZM108.666 9.28741H113.184V13.8047H108.666V9.28741ZM113.184 9.28741H117.701V13.8047H113.184V9.28741ZM117.701 9.28741H122.218V13.8047H117.701V9.28741ZM126.735 9.28741H131.253V13.8047H126.735V9.28741ZM0.252686 13.8047H4.76993V18.3219H0.252686V13.8047ZM9.28717 13.8047H13.8044V18.3219H9.28717V13.8047ZM13.8044 13.8047H18.3217V18.3219H13.8044V13.8047ZM18.3217 13.8047H22.8389V18.3219H18.3217V13.8047ZM27.3561 13.8047H31.8734V18.3219H27.3561V13.8047ZM36.3906 13.8047H40.9079V18.3219H36.3906V13.8047ZM45.4251 13.8047H49.9423V18.3219H45.4251V13.8047ZM54.4596 13.8047H58.9768V18.3219H54.4596V13.8047ZM58.9768 13.8047H63.4941V18.3219H58.9768V13.8047ZM63.4941 13.8047H68.0113V18.3219H63.4941V13.8047ZM77.0458 13.8047H81.563V18.3219H77.0458V13.8047ZM86.0803 13.8047H90.5975V18.3219H86.0803V13.8047ZM99.632 13.8047H104.149V18.3219H99.632V13.8047ZM108.666 13.8047H113.184V18.3219H108.666V13.8047ZM113.184 13.8047H117.701V18.3219H113.184V13.8047ZM117.701 13.8047H122.218V18.3219H117.701V13.8047ZM126.735 13.8047H131.253V18.3219H126.735V13.8047ZM0.252686 18.3219H4.76993V22.8391H0.252686V18.3219ZM9.28717 18.3219H13.8044V22.8391H9.28717V18.3219ZM13.8044 18.3219H18.3217V22.8391H13.8044V18.3219ZM18.3217 18.3219H22.8389V22.8391H18.3217V18.3219ZM27.3561 18.3219H31.8734V22.8391H27.3561V18.3219ZM40.9079 18.3219H45.4251V22.8391H40.9079V18.3219ZM45.4251 18.3219H49.9423V22.8391H45.4251V18.3219ZM54.4596 18.3219H58.9768V22.8391H54.4596V18.3219ZM63.4941 18.3219H68.0113V22.8391H63.4941V18.3219ZM68.0113 18.3219H72.5285V22.8391H68.0113V18.3219ZM72.5285 18.3219H77.0458V22.8391H72.5285V18.3219ZM86.0803 18.3219H90.5975V22.8391H86.0803V18.3219ZM99.632 18.3219H104.149V22.8391H99.632V18.3219ZM108.666 18.3219H113.184V22.8391H108.666V18.3219ZM113.184 18.3219H117.701V22.8391H113.184V18.3219ZM117.701 18.3219H122.218V22.8391H117.701V18.3219ZM126.735 18.3219H131.253V22.8391H126.735V18.3219ZM0.252686 22.8391H4.76993V27.3564H0.252686V22.8391ZM27.3561 22.8391H31.8734V27.3564H27.3561V22.8391ZM40.9079 22.8391H45.4251V27.3564H40.9079V22.8391ZM49.9423 22.8391H54.4596V27.3564H49.9423V22.8391ZM54.4596 22.8391H58.9768V27.3564H54.4596V22.8391ZM63.4941 22.8391H68.0113V27.3564H63.4941V22.8391ZM77.0458 22.8391H81.563V27.3564H77.0458V22.8391ZM81.563 22.8391H86.0803V27.3564H81.563V22.8391ZM86.0803 22.8391H90.5975V27.3564H86.0803V22.8391ZM90.5975 22.8391H95.1148V27.3564H90.5975V22.8391ZM99.632 22.8391H104.149V27.3564H99.632V22.8391ZM126.735 22.8391H131.253V27.3564H126.735V22.8391ZM0.252686 27.3564H4.76993V31.8736H0.252686V27.3564ZM4.76993 27.3564H9.28717V31.8736H4.76993V27.3564ZM9.28717 27.3564H13.8044V31.8736H9.28717V27.3564ZM13.8044 27.3564H18.3217V31.8736H13.8044V27.3564ZM18.3217 27.3564H22.8389V31.8736H18.3217V27.3564ZM22.8389 27.3564H27.3561V31.8736H22.8389V27.3564ZM27.3561 27.3564H31.8734V31.8736H27.3561V27.3564ZM36.3906 27.3564H40.9079V31.8736H36.3906V27.3564ZM45.4251 27.3564H49.9423V31.8736H45.4251V27.3564ZM54.4596 27.3564H58.9768V31.8736H54.4596V27.3564ZM63.4941 27.3564H68.0113V31.8736H63.4941V27.3564ZM72.5285 27.3564H77.0458V31.8736H72.5285V27.3564ZM81.563 27.3564H86.0803V31.8736H81.563V27.3564ZM90.5975 27.3564H95.1148V31.8736H90.5975V27.3564ZM99.632 27.3564H104.149V31.8736H99.632V27.3564ZM104.149 27.3564H108.666V31.8736H104.149V27.3564ZM108.666 27.3564H113.184V31.8736H108.666V27.3564ZM113.184 27.3564H117.701V31.8736H113.184V27.3564ZM117.701 27.3564H122.218V31.8736H117.701V27.3564ZM122.218 27.3564H126.735V31.8736H122.218V27.3564ZM126.735 27.3564H131.253V31.8736H126.735V27.3564ZM36.3906 31.8736H40.9079V36.3909H36.3906V31.8736ZM45.4251 31.8736H49.9423V36.3909H45.4251V31.8736ZM49.9423 31.8736H54.4596V36.3909H49.9423V31.8736ZM63.4941 31.8736H68.0113V36.3909H63.4941V31.8736ZM77.0458 31.8736H81.563V36.3909H77.0458V31.8736ZM0.252686 36.3909H4.76993V40.9081H0.252686V36.3909ZM9.28717 36.3909H13.8044V40.9081H9.28717V36.3909ZM13.8044 36.3909H18.3217V40.9081H13.8044V36.3909ZM22.8389 36.3909H27.3561V40.9081H22.8389V36.3909ZM27.3561 36.3909H31.8734V40.9081H27.3561V36.3909ZM31.8734 36.3909H36.3906V40.9081H31.8734V36.3909ZM45.4251 36.3909H49.9423V40.9081H45.4251V36.3909ZM63.4941 36.3909H68.0113V40.9081H63.4941V36.3909ZM77.0458 36.3909H81.563V40.9081H77.0458V36.3909ZM81.563 36.3909H86.0803V40.9081H81.563V36.3909ZM86.0803 36.3909H90.5975V40.9081H86.0803V36.3909ZM99.632 36.3909H104.149V40.9081H99.632V36.3909ZM113.184 36.3909H117.701V40.9081H113.184V36.3909ZM122.218 36.3909H126.735V40.9081H122.218V36.3909ZM126.735 36.3909H131.253V40.9081H126.735V36.3909ZM13.8044 40.9081H18.3217V45.4253H13.8044V40.9081ZM40.9079 40.9081H45.4251V45.4253H40.9079V40.9081ZM49.9423 40.9081H54.4596V45.4253H49.9423V40.9081ZM54.4596 40.9081H58.9768V45.4253H54.4596V40.9081ZM72.5285 40.9081H77.0458V45.4253H72.5285V40.9081ZM77.0458 40.9081H81.563V45.4253H77.0458V40.9081ZM81.563 40.9081H86.0803V45.4253H81.563V40.9081ZM86.0803 40.9081H90.5975V45.4253H86.0803V40.9081ZM90.5975 40.9081H95.1148V45.4253H90.5975V40.9081ZM99.632 40.9081H104.149V45.4253H99.632V40.9081ZM104.149 40.9081H108.666V45.4253H104.149V40.9081ZM108.666 40.9081H113.184V45.4253H108.666V40.9081ZM126.735 40.9081H131.253V45.4253H126.735V40.9081ZM0.252686 45.4253H4.76993V49.9426H0.252686V45.4253ZM9.28717 45.4253H13.8044V49.9426H9.28717V45.4253ZM13.8044 45.4253H18.3217V49.9426H13.8044V45.4253ZM18.3217 45.4253H22.8389V49.9426H18.3217V45.4253ZM22.8389 45.4253H27.3561V49.9426H22.8389V45.4253ZM27.3561 45.4253H31.8734V49.9426H27.3561V45.4253ZM31.8734 45.4253H36.3906V49.9426H31.8734V45.4253ZM36.3906 45.4253H40.9079V49.9426H36.3906V45.4253ZM40.9079 45.4253H45.4251V49.9426H40.9079V45.4253ZM49.9423 45.4253H54.4596V49.9426H49.9423V45.4253ZM54.4596 45.4253H58.9768V49.9426H54.4596V45.4253ZM72.5285 45.4253H77.0458V49.9426H72.5285V45.4253ZM90.5975 45.4253H95.1148V49.9426H90.5975V45.4253ZM108.666 45.4253H113.184V49.9426H108.666V45.4253ZM117.701 45.4253H122.218V49.9426H117.701V45.4253ZM122.218 45.4253H126.735V49.9426H122.218V45.4253ZM9.28717 49.9426H13.8044V54.4598H9.28717V49.9426ZM22.8389 49.9426H27.3561V54.4598H22.8389V49.9426ZM31.8734 49.9426H36.3906V54.4598H31.8734V49.9426ZM40.9079 49.9426H45.4251V54.4598H40.9079V49.9426ZM54.4596 49.9426H58.9768V54.4598H54.4596V49.9426ZM58.9768 49.9426H63.4941V54.4598H58.9768V49.9426ZM68.0113 49.9426H72.5285V54.4598H68.0113V49.9426ZM81.563 49.9426H86.0803V54.4598H81.563V49.9426ZM90.5975 49.9426H95.1148V54.4598H90.5975V49.9426ZM95.1148 49.9426H99.632V54.4598H95.1148V49.9426ZM108.666 49.9426H113.184V54.4598H108.666V49.9426ZM126.735 49.9426H131.253V54.4598H126.735V49.9426ZM18.3217 54.4598H22.8389V58.9771H18.3217V54.4598ZM27.3561 54.4598H31.8734V58.9771H27.3561V54.4598ZM45.4251 54.4598H49.9423V58.9771H45.4251V54.4598ZM58.9768 54.4598H63.4941V58.9771H58.9768V54.4598ZM63.4941 54.4598H68.0113V58.9771H63.4941V54.4598ZM77.0458 54.4598H81.563V58.9771H77.0458V54.4598ZM81.563 54.4598H86.0803V58.9771H81.563V54.4598ZM86.0803 54.4598H90.5975V58.9771H86.0803V54.4598ZM113.184 54.4598H117.701V58.9771H113.184V54.4598ZM117.701 54.4598H122.218V58.9771H117.701V54.4598ZM0.252686 58.9771H4.76993V63.4943H0.252686V58.9771ZM13.8044 58.9771H18.3217V63.4943H13.8044V58.9771ZM18.3217 58.9771H22.8389V63.4943H18.3217V58.9771ZM36.3906 58.9771H40.9079V63.4943H36.3906V58.9771ZM40.9079 58.9771H45.4251V63.4943H40.9079V58.9771ZM45.4251 58.9771H49.9423V63.4943H45.4251V58.9771ZM49.9423 58.9771H54.4596V63.4943H49.9423V58.9771ZM54.4596 58.9771H58.9768V63.4943H54.4596V58.9771ZM58.9768 58.9771H63.4941V63.4943H58.9768V58.9771ZM63.4941 58.9771H68.0113V63.4943H63.4941V58.9771ZM68.0113 58.9771H72.5285V63.4943H68.0113V58.9771ZM86.0803 58.9771H90.5975V63.4943H86.0803V58.9771ZM99.632 58.9771H104.149V63.4943H99.632V58.9771ZM117.701 58.9771H122.218V63.4943H117.701V58.9771ZM122.218 58.9771H126.735V63.4943H122.218V58.9771ZM126.735 58.9771H131.253V63.4943H126.735V58.9771ZM0.252686 63.4943H4.76993V68.0116H0.252686V63.4943ZM4.76993 63.4943H9.28717V68.0116H4.76993V63.4943ZM13.8044 63.4943H18.3217V68.0116H13.8044V63.4943ZM22.8389 63.4943H27.3561V68.0116H22.8389V63.4943ZM27.3561 63.4943H31.8734V68.0116H27.3561V63.4943ZM31.8734 63.4943H36.3906V68.0116H31.8734V63.4943ZM36.3906 63.4943H40.9079V68.0116H36.3906V63.4943ZM49.9423 63.4943H54.4596V68.0116H49.9423V63.4943ZM54.4596 63.4943H58.9768V68.0116H54.4596V63.4943ZM58.9768 63.4943H63.4941V68.0116H58.9768V63.4943ZM63.4941 63.4943H68.0113V68.0116H63.4941V63.4943ZM72.5285 63.4943H77.0458V68.0116H72.5285V63.4943ZM77.0458 63.4943H81.563V68.0116H77.0458V63.4943ZM81.563 63.4943H86.0803V68.0116H81.563V63.4943ZM86.0803 63.4943H90.5975V68.0116H86.0803V63.4943ZM90.5975 63.4943H95.1148V68.0116H90.5975V63.4943ZM99.632 63.4943H104.149V68.0116H99.632V63.4943ZM104.149 63.4943H108.666V68.0116H104.149V63.4943ZM108.666 63.4943H113.184V68.0116H108.666V63.4943ZM117.701 63.4943H122.218V68.0116H117.701V63.4943ZM122.218 63.4943H126.735V68.0116H122.218V63.4943ZM126.735 63.4943H131.253V68.0116H126.735V63.4943ZM0.252686 68.0116H4.76993V72.5288H0.252686V68.0116ZM9.28717 68.0116H13.8044V72.5288H9.28717V68.0116ZM18.3217 68.0116H22.8389V72.5288H18.3217V68.0116ZM40.9079 68.0116H45.4251V72.5288H40.9079V68.0116ZM45.4251 68.0116H49.9423V72.5288H45.4251V68.0116ZM49.9423 68.0116H54.4596V72.5288H49.9423V68.0116ZM63.4941 68.0116H68.0113V72.5288H63.4941V68.0116ZM72.5285 68.0116H77.0458V72.5288H72.5285V68.0116ZM81.563 68.0116H86.0803V72.5288H81.563V68.0116ZM86.0803 68.0116H90.5975V72.5288H86.0803V68.0116ZM90.5975 68.0116H95.1148V72.5288H90.5975V68.0116ZM99.632 68.0116H104.149V72.5288H99.632V68.0116ZM108.666 68.0116H113.184V72.5288H108.666V68.0116ZM122.218 68.0116H126.735V72.5288H122.218V68.0116ZM0.252686 72.5288H4.76993V77.046H0.252686V72.5288ZM13.8044 72.5288H18.3217V77.046H13.8044V72.5288ZM22.8389 72.5288H27.3561V77.046H22.8389V72.5288ZM27.3561 72.5288H31.8734V77.046H27.3561V72.5288ZM45.4251 72.5288H49.9423V77.046H45.4251V72.5288ZM54.4596 72.5288H58.9768V77.046H54.4596V72.5288ZM58.9768 72.5288H63.4941V77.046H58.9768V72.5288ZM63.4941 72.5288H68.0113V77.046H63.4941V72.5288ZM72.5285 72.5288H77.0458V77.046H72.5285V72.5288ZM81.563 72.5288H86.0803V77.046H81.563V72.5288ZM86.0803 72.5288H90.5975V77.046H86.0803V72.5288ZM90.5975 72.5288H95.1148V77.046H90.5975V72.5288ZM95.1148 72.5288H99.632V77.046H95.1148V72.5288ZM104.149 72.5288H108.666V77.046H104.149V72.5288ZM108.666 72.5288H113.184V77.046H108.666V72.5288ZM113.184 72.5288H117.701V77.046H113.184V72.5288ZM122.218 72.5288H126.735V77.046H122.218V72.5288ZM13.8044 77.046H18.3217V81.5633H13.8044V77.046ZM22.8389 77.046H27.3561V81.5633H22.8389V77.046ZM36.3906 77.046H40.9079V81.5633H36.3906V77.046ZM40.9079 77.046H45.4251V81.5633H40.9079V77.046ZM58.9768 77.046H63.4941V81.5633H58.9768V77.046ZM63.4941 77.046H68.0113V81.5633H63.4941V77.046ZM68.0113 77.046H72.5285V81.5633H68.0113V77.046ZM77.0458 77.046H81.563V81.5633H77.0458V77.046ZM90.5975 77.046H95.1148V81.5633H90.5975V77.046ZM95.1148 77.046H99.632V81.5633H95.1148V77.046ZM104.149 77.046H108.666V81.5633H104.149V77.046ZM113.184 77.046H117.701V81.5633H113.184V77.046ZM117.701 77.046H122.218V81.5633H117.701V77.046ZM122.218 77.046H126.735V81.5633H122.218V77.046ZM0.252686 81.5633H4.76993V86.0805H0.252686V81.5633ZM9.28717 81.5633H13.8044V86.0805H9.28717V81.5633ZM18.3217 81.5633H22.8389V86.0805H18.3217V81.5633ZM27.3561 81.5633H31.8734V86.0805H27.3561V81.5633ZM31.8734 81.5633H36.3906V86.0805H31.8734V81.5633ZM40.9079 81.5633H45.4251V86.0805H40.9079V81.5633ZM45.4251 81.5633H49.9423V86.0805H45.4251V81.5633ZM49.9423 81.5633H54.4596V86.0805H49.9423V81.5633ZM58.9768 81.5633H63.4941V86.0805H58.9768V81.5633ZM63.4941 81.5633H68.0113V86.0805H63.4941V81.5633ZM68.0113 81.5633H72.5285V86.0805H68.0113V81.5633ZM72.5285 81.5633H77.0458V86.0805H72.5285V81.5633ZM95.1148 81.5633H99.632V86.0805H95.1148V81.5633ZM104.149 81.5633H108.666V86.0805H104.149V81.5633ZM108.666 81.5633H113.184V86.0805H108.666V81.5633ZM117.701 81.5633H122.218V86.0805H117.701V81.5633ZM9.28717 86.0805H13.8044V90.5978H9.28717V86.0805ZM13.8044 86.0805H18.3217V90.5978H13.8044V86.0805ZM18.3217 86.0805H22.8389V90.5978H18.3217V86.0805ZM31.8734 86.0805H36.3906V90.5978H31.8734V86.0805ZM77.0458 86.0805H81.563V90.5978H77.0458V86.0805ZM81.563 86.0805H86.0803V90.5978H81.563V86.0805ZM86.0803 86.0805H90.5975V90.5978H86.0803V86.0805ZM99.632 86.0805H104.149V90.5978H99.632V86.0805ZM104.149 86.0805H108.666V90.5978H104.149V86.0805ZM108.666 86.0805H113.184V90.5978H108.666V86.0805ZM117.701 86.0805H122.218V90.5978H117.701V86.0805ZM4.76993 90.5978H9.28717V95.115H4.76993V90.5978ZM9.28717 90.5978H13.8044V95.115H9.28717V90.5978ZM22.8389 90.5978H27.3561V95.115H22.8389V90.5978ZM27.3561 90.5978H31.8734V95.115H27.3561V90.5978ZM31.8734 90.5978H36.3906V95.115H31.8734V90.5978ZM45.4251 90.5978H49.9423V95.115H45.4251V90.5978ZM49.9423 90.5978H54.4596V95.115H49.9423V90.5978ZM63.4941 90.5978H68.0113V95.115H63.4941V90.5978ZM72.5285 90.5978H77.0458V95.115H72.5285V90.5978ZM77.0458 90.5978H81.563V95.115H77.0458V90.5978ZM81.563 90.5978H86.0803V95.115H81.563V90.5978ZM90.5975 90.5978H95.1148V95.115H90.5975V90.5978ZM95.1148 90.5978H99.632V95.115H95.1148V90.5978ZM99.632 90.5978H104.149V95.115H99.632V90.5978ZM104.149 90.5978H108.666V95.115H104.149V90.5978ZM108.666 90.5978H113.184V95.115H108.666V90.5978ZM113.184 90.5978H117.701V95.115H113.184V90.5978ZM117.701 90.5978H122.218V95.115H117.701V90.5978ZM36.3906 95.115H40.9079V99.6322H36.3906V95.115ZM40.9079 95.115H45.4251V99.6322H40.9079V95.115ZM45.4251 95.115H49.9423V99.6322H45.4251V95.115ZM58.9768 95.115H63.4941V99.6322H58.9768V95.115ZM63.4941 95.115H68.0113V99.6322H63.4941V95.115ZM68.0113 95.115H72.5285V99.6322H68.0113V95.115ZM72.5285 95.115H77.0458V99.6322H72.5285V95.115ZM81.563 95.115H86.0803V99.6322H81.563V95.115ZM90.5975 95.115H95.1148V99.6322H90.5975V95.115ZM108.666 95.115H113.184V99.6322H108.666V95.115ZM113.184 95.115H117.701V99.6322H113.184V95.115ZM117.701 95.115H122.218V99.6322H117.701V95.115ZM122.218 95.115H126.735V99.6322H122.218V95.115ZM126.735 95.115H131.253V99.6322H126.735V95.115ZM0.252686 99.6322H4.76993V104.149H0.252686V99.6322ZM4.76993 99.6322H9.28717V104.149H4.76993V99.6322ZM9.28717 99.6322H13.8044V104.149H9.28717V99.6322ZM13.8044 99.6322H18.3217V104.149H13.8044V99.6322ZM18.3217 99.6322H22.8389V104.149H18.3217V99.6322ZM22.8389 99.6322H27.3561V104.149H22.8389V99.6322ZM27.3561 99.6322H31.8734V104.149H27.3561V99.6322ZM36.3906 99.6322H40.9079V104.149H36.3906V99.6322ZM40.9079 99.6322H45.4251V104.149H40.9079V99.6322ZM54.4596 99.6322H58.9768V104.149H54.4596V99.6322ZM63.4941 99.6322H68.0113V104.149H63.4941V99.6322ZM72.5285 99.6322H77.0458V104.149H72.5285V99.6322ZM77.0458 99.6322H81.563V104.149H77.0458V99.6322ZM81.563 99.6322H86.0803V104.149H81.563V99.6322ZM86.0803 99.6322H90.5975V104.149H86.0803V99.6322ZM90.5975 99.6322H95.1148V104.149H90.5975V99.6322ZM99.632 99.6322H104.149V104.149H99.632V99.6322ZM108.666 99.6322H113.184V104.149H108.666V99.6322ZM113.184 99.6322H117.701V104.149H113.184V99.6322ZM122.218 99.6322H126.735V104.149H122.218V99.6322ZM0.252686 104.149H4.76993V108.667H0.252686V104.149ZM27.3561 104.149H31.8734V108.667H27.3561V104.149ZM36.3906 104.149H40.9079V108.667H36.3906V104.149ZM45.4251 104.149H49.9423V108.667H45.4251V104.149ZM58.9768 104.149H63.4941V108.667H58.9768V104.149ZM68.0113 104.149H72.5285V108.667H68.0113V104.149ZM72.5285 104.149H77.0458V108.667H72.5285V104.149ZM81.563 104.149H86.0803V108.667H81.563V104.149ZM86.0803 104.149H90.5975V108.667H86.0803V104.149ZM90.5975 104.149H95.1148V108.667H90.5975V104.149ZM108.666 104.149H113.184V108.667H108.666V104.149ZM113.184 104.149H117.701V108.667H113.184V104.149ZM0.252686 108.667H4.76993V113.184H0.252686V108.667ZM9.28717 108.667H13.8044V113.184H9.28717V108.667ZM13.8044 108.667H18.3217V113.184H13.8044V108.667ZM18.3217 108.667H22.8389V113.184H18.3217V108.667ZM27.3561 108.667H31.8734V113.184H27.3561V108.667ZM40.9079 108.667H45.4251V113.184H40.9079V108.667ZM49.9423 108.667H54.4596V113.184H49.9423V108.667ZM54.4596 108.667H58.9768V113.184H54.4596V108.667ZM77.0458 108.667H81.563V113.184H77.0458V108.667ZM81.563 108.667H86.0803V113.184H81.563V108.667ZM90.5975 108.667H95.1148V113.184H90.5975V108.667ZM95.1148 108.667H99.632V113.184H95.1148V108.667ZM99.632 108.667H104.149V113.184H99.632V108.667ZM104.149 108.667H108.666V113.184H104.149V108.667ZM108.666 108.667H113.184V113.184H108.666V108.667ZM117.701 108.667H122.218V113.184H117.701V108.667ZM122.218 108.667H126.735V113.184H122.218V108.667ZM126.735 108.667H131.253V113.184H126.735V108.667ZM0.252686 113.184H4.76993V117.701H0.252686V113.184ZM9.28717 113.184H13.8044V117.701H9.28717V113.184ZM13.8044 113.184H18.3217V117.701H13.8044V113.184ZM18.3217 113.184H22.8389V117.701H18.3217V113.184ZM27.3561 113.184H31.8734V117.701H27.3561V113.184ZM36.3906 113.184H40.9079V117.701H36.3906V113.184ZM63.4941 113.184H68.0113V117.701H63.4941V113.184ZM68.0113 113.184H72.5285V117.701H68.0113V113.184ZM72.5285 113.184H77.0458V117.701H72.5285V113.184ZM86.0803 113.184H90.5975V117.701H86.0803V113.184ZM95.1148 113.184H99.632V117.701H95.1148V113.184ZM104.149 113.184H108.666V117.701H104.149V113.184ZM108.666 113.184H113.184V117.701H108.666V113.184ZM113.184 113.184H117.701V117.701H113.184V113.184ZM126.735 113.184H131.253V117.701H126.735V113.184ZM0.252686 117.701H4.76993V122.218H0.252686V117.701ZM9.28717 117.701H13.8044V122.218H9.28717V117.701ZM13.8044 117.701H18.3217V122.218H13.8044V117.701ZM18.3217 117.701H22.8389V122.218H18.3217V117.701ZM27.3561 117.701H31.8734V122.218H27.3561V117.701ZM36.3906 117.701H40.9079V122.218H36.3906V117.701ZM63.4941 117.701H68.0113V122.218H63.4941V117.701ZM77.0458 117.701H81.563V122.218H77.0458V117.701ZM81.563 117.701H86.0803V122.218H81.563V117.701ZM104.149 117.701H108.666V122.218H104.149V117.701ZM117.701 117.701H122.218V122.218H117.701V117.701ZM126.735 117.701H131.253V122.218H126.735V117.701ZM0.252686 122.218H4.76993V126.736H0.252686V122.218ZM27.3561 122.218H31.8734V126.736H27.3561V122.218ZM40.9079 122.218H45.4251V126.736H40.9079V122.218ZM45.4251 122.218H49.9423V126.736H45.4251V122.218ZM54.4596 122.218H58.9768V126.736H54.4596V122.218ZM58.9768 122.218H63.4941V126.736H58.9768V122.218ZM63.4941 122.218H68.0113V126.736H63.4941V122.218ZM68.0113 122.218H72.5285V126.736H68.0113V122.218ZM86.0803 122.218H90.5975V126.736H86.0803V122.218ZM90.5975 122.218H95.1148V126.736H90.5975V122.218ZM104.149 122.218H108.666V126.736H104.149V122.218ZM113.184 122.218H117.701V126.736H113.184V122.218ZM122.218 122.218H126.735V126.736H122.218V122.218ZM0.252686 126.736H4.76993V131.253H0.252686V126.736ZM4.76993 126.736H9.28717V131.253H4.76993V126.736ZM9.28717 126.736H13.8044V131.253H9.28717V126.736ZM13.8044 126.736H18.3217V131.253H13.8044V126.736ZM18.3217 126.736H22.8389V131.253H18.3217V126.736ZM22.8389 126.736H27.3561V131.253H22.8389V126.736ZM27.3561 126.736H31.8734V131.253H27.3561V126.736ZM36.3906 126.736H40.9079V131.253H36.3906V126.736ZM40.9079 126.736H45.4251V131.253H40.9079V126.736ZM49.9423 126.736H54.4596V131.253H49.9423V126.736ZM54.4596 126.736H58.9768V131.253H54.4596V126.736ZM58.9768 126.736H63.4941V131.253H58.9768V126.736ZM68.0113 126.736H72.5285V131.253H68.0113V126.736ZM81.563 126.736H86.0803V131.253H81.563V126.736ZM86.0803 126.736H90.5975V131.253H86.0803V126.736ZM90.5975 126.736H95.1148V131.253H90.5975V126.736ZM95.1148 126.736H99.632V131.253H95.1148V126.736ZM104.149 126.736H108.666V131.253H104.149V126.736ZM108.666 126.736H113.184V131.253H108.666V126.736ZM122.218 126.736H126.735V131.253H122.218V126.736Z"></path>
</g>
<defs>
<clipPath id="clip0_684_48">
<rect transform="translate(0.252686 0.25293)" fill="white" height="131" width="131"></rect>
</clipPath>
</defs>
</svg>
