<svg width="16" height="16" viewBox="0 0 16 16" fill="none" xmlns="http://www.w3.org/2000/svg">
<path d="M9.75003 1C11.1031 1 12.2 2.0969 12.2 3.45C12.2 3.82605 12.1153 4.18231 11.9639 4.50073L14.3 4.50001C14.6866 4.50001 15 4.8134 15 5.20001V7.99999C15 8.3866 14.6866 8.69999 14.3 8.69999H13.6V14.3C13.6 14.6866 13.2866 15 12.9 15H3.1C2.71341 15 2.4 14.6866 2.4 14.3V8.69999H1.7C1.3134 8.69999 1 8.3866 1 7.99999V5.20001C1 4.8134 1.3134 4.50001 1.7 4.50001L4.03612 4.50073C3.88473 4.18231 3.8 3.82605 3.8 3.45C3.8 2.0969 4.89691 1 6.25001 1C6.93602 1 7.55615 1.28193 8.00086 1.73625C8.4439 1.28193 9.06403 1 9.75003 1ZM12.2 8.69999H3.8V13.6H12.2V8.69999ZM13.6 5.90001H2.4V7.29999H13.6V5.90001ZM6.25001 2.4C5.67011 2.4 5.20001 2.8701 5.20001 3.45C5.20001 3.99579 5.61643 4.44432 6.14889 4.4952L6.25001 4.50001H7.30002V3.45C7.30002 2.90421 6.88359 2.45569 6.35113 2.40481L6.25001 2.4ZM9.75003 2.4L9.64888 2.40481C9.14971 2.45251 8.75253 2.8497 8.70479 3.34888L8.70003 3.45V4.50001H9.75003L9.85111 4.4952C10.3836 4.44432 10.8 3.99579 10.8 3.45C10.8 2.90421 10.3836 2.45569 9.85111 2.40481L9.75003 2.4Z" fill="black"/>
</svg>
