<svg width="107" height="37" viewBox="0 0 107 37" fill="none" xmlns="http://www.w3.org/2000/svg">
<path d="M35.9765 9.93341C35.991 10.2586 35.9396 10.5834 35.8253 10.8882C35.711 11.1931 35.5362 11.4716 35.3114 11.707C35.0594 11.9671 34.7554 12.1711 34.4192 12.3056C34.083 12.4401 33.7222 12.502 33.3604 12.4874C32.9965 12.4955 32.6348 12.4289 32.2977 12.2916C31.9606 12.1543 31.6552 11.9493 31.4005 11.6893C30.8838 11.1607 30.5945 10.4509 30.5945 9.71171C30.5945 8.97252 30.8838 8.26269 31.4005 7.73413C31.7956 7.34809 32.296 7.08741 32.8387 6.98485C33.3815 6.8823 33.9425 6.94243 34.4512 7.1577C34.771 7.28915 35.0562 7.49246 35.2848 7.75186L34.8148 8.22187C34.6386 8.00972 34.4155 7.84155 34.163 7.73072C33.9106 7.61988 33.6358 7.56943 33.3604 7.58337C33.0128 7.58577 32.6711 7.67328 32.3651 7.83825C32.0591 8.00322 31.7982 8.24062 31.6051 8.52971C31.4121 8.81879 31.2928 9.15076 31.2577 9.4966C31.2225 9.84244 31.2727 10.1916 31.4036 10.5136C31.5346 10.8356 31.7425 11.1206 32.009 11.3437C32.2756 11.5669 32.5928 11.7213 32.9328 11.7935C33.2728 11.8658 33.6254 11.8536 33.9596 11.7582C34.2939 11.6627 34.5996 11.4868 34.8502 11.2459C35.1211 10.9489 35.2782 10.5656 35.2936 10.164H33.3604V9.52548H35.941C35.9612 9.6606 35.973 9.79683 35.9765 9.93341Z" fill="white" stroke="white" stroke-width="0.167784" stroke-miterlimit="10"/>
<path d="M40.0379 7.71556H37.6436V9.4005H39.8251V10.039H37.6436V11.7239H40.0379V12.3802H36.9518V7.05933H40.0379V7.71556Z" fill="white" stroke="white" stroke-width="0.167784" stroke-miterlimit="10"/>
<path d="M42.947 12.3802H42.2642V7.71556H40.7744V7.05933H44.4723V7.71556H42.947V12.3802Z" fill="white" stroke="white" stroke-width="0.167784" stroke-miterlimit="10"/>
<path d="M47.0781 12.3802V7.05933H47.761V12.3802H47.0781Z" fill="white" stroke="white" stroke-width="0.167784" stroke-miterlimit="10"/>
<path d="M50.7948 12.3802H50.112V7.71556H48.6221V7.05933H52.2758V7.71556H50.7948V12.3802Z" fill="white" stroke="white" stroke-width="0.167784" stroke-miterlimit="10"/>
<path d="M59.202 11.6895C58.9458 11.9458 58.6417 12.1492 58.3069 12.2879C57.9722 12.4267 57.6134 12.4981 57.251 12.4981C56.8886 12.4981 56.5298 12.4267 56.195 12.2879C55.8603 12.1492 55.5561 11.9458 55.3 11.6895C54.7987 11.1566 54.5195 10.4524 54.5195 9.72077C54.5195 8.98909 54.7987 8.28498 55.3 7.75205C55.5506 7.48849 55.8538 7.28048 56.1898 7.14147C56.5259 7.00245 56.8874 6.93554 57.251 6.94506C57.614 6.93931 57.9744 7.00795 58.3099 7.14674C58.6455 7.28552 58.949 7.49152 59.202 7.75205C59.457 8.01143 59.6574 8.31928 59.7914 8.65742C59.9255 8.99556 59.9904 9.35712 59.9823 9.72077C59.994 10.0849 59.9307 10.4475 59.7965 10.7861C59.6622 11.1248 59.4599 11.4322 59.202 11.6895ZM55.8055 11.2461C55.9944 11.4375 56.2194 11.5895 56.4676 11.6933C56.7157 11.797 56.982 11.8505 57.251 11.8505C57.5199 11.8505 57.7862 11.797 58.0344 11.6933C58.2825 11.5895 58.5076 11.4375 58.6965 11.2461C59.0791 10.8303 59.2915 10.2858 59.2915 9.72077C59.2915 9.15569 59.0791 8.61126 58.6965 8.19546C58.5076 8.00401 58.2825 7.85201 58.0344 7.74825C57.7862 7.6445 57.5199 7.59108 57.251 7.59108C56.982 7.59108 56.7157 7.6445 56.4676 7.74825C56.2194 7.85201 55.9944 8.00401 55.8055 8.19546C55.4228 8.61126 55.2104 9.15569 55.2104 9.72077C55.2104 10.2858 55.4228 10.8303 55.8055 11.2461Z" fill="white" stroke="white" stroke-width="0.167784" stroke-miterlimit="10"/>
<path d="M60.9485 12.3802V7.05933H61.7733L64.3628 11.2007V10.172V7.05933H65.0456V12.3802H64.3362L61.6314 8.04368V9.06351V12.3802H60.9485Z" fill="white" stroke="white" stroke-width="0.167784" stroke-miterlimit="10"/>
<path d="M52.4617 20.462C51.786 20.4636 51.126 20.6656 50.565 21.0423C50.0041 21.419 49.5675 21.9536 49.3104 22.5784C49.0533 23.2033 48.9872 23.8904 49.1206 24.5528C49.254 25.2152 49.5808 25.8231 50.0597 26.2998C50.5386 26.7765 51.1481 27.1004 51.8111 27.2307C52.4741 27.361 53.1609 27.2917 53.7845 27.0316C54.4082 26.7716 54.9407 26.3325 55.3148 25.7698C55.6889 25.2071 55.8877 24.5461 55.8861 23.8704C55.8926 23.4196 55.8084 22.9722 55.6384 22.5546C55.4685 22.1371 55.2162 21.7581 54.8967 21.44C54.5772 21.122 54.1969 20.8716 53.7786 20.7035C53.3603 20.5355 52.9124 20.4534 52.4617 20.462ZM52.4617 25.9395C52.0476 25.9684 51.6343 25.8721 51.2756 25.6631C50.9169 25.4541 50.6294 25.142 50.4504 24.7673C50.2714 24.3927 50.2093 23.9729 50.2721 23.5626C50.3349 23.1522 50.5197 22.7702 50.8024 22.4662C51.0852 22.1622 51.4529 21.9503 51.8576 21.8581C52.2624 21.7658 52.6856 21.7975 53.0722 21.949C53.4587 22.1004 53.7908 22.3646 54.0252 22.7073C54.2595 23.05 54.3854 23.4552 54.3864 23.8704C54.3993 24.1335 54.3595 24.3964 54.2691 24.6438C54.1788 24.8912 54.0398 25.118 53.8605 25.3109C53.6811 25.5037 53.4649 25.6587 53.2247 25.7666C52.9844 25.8746 52.725 25.9334 52.4617 25.9395ZM44.9874 20.462C44.3117 20.4636 43.6517 20.6656 43.0907 21.0423C42.5298 21.419 42.0932 21.9536 41.836 22.5784C41.5789 23.2033 41.5129 23.8904 41.6463 24.5528C41.7796 25.2152 42.1065 25.8231 42.5854 26.2998C43.0643 26.7765 43.6738 27.1004 44.3368 27.2307C44.9998 27.361 45.6866 27.2917 46.3102 27.0316C46.9339 26.7716 47.4664 26.3325 47.8405 25.7698C48.2146 25.2071 48.4134 24.5461 48.4118 23.8704C48.4183 23.4196 48.3341 22.9722 48.1641 22.5546C47.9941 22.1371 47.7419 21.7581 47.4224 21.44C47.1029 21.122 46.7226 20.8716 46.3043 20.7035C45.886 20.5355 45.4381 20.4534 44.9874 20.462ZM44.9874 25.9395C44.5732 25.9684 44.16 25.8721 43.8013 25.6631C43.4426 25.4541 43.155 25.142 42.9761 24.7673C42.7971 24.3927 42.735 23.9729 42.7978 23.5626C42.8605 23.1522 43.0453 22.7702 43.3281 22.4662C43.6109 22.1622 43.9785 21.9503 44.3833 21.8581C44.7881 21.7658 45.2113 21.7975 45.5978 21.949C45.9844 22.1004 46.3164 22.3646 46.5508 22.7073C46.7852 23.05 46.9111 23.4552 46.9121 23.8704C46.925 24.1335 46.8851 24.3964 46.7948 24.6438C46.7045 24.8912 46.5655 25.118 46.3861 25.3109C46.2068 25.5037 45.9906 25.6587 45.7503 25.7666C45.5101 25.8746 45.2507 25.9334 44.9874 25.9395ZM36.1016 21.5126V22.9562H39.5661C39.5118 23.6361 39.2292 24.2776 38.7641 24.7766C38.4166 25.1307 37.9986 25.4079 37.5372 25.5902C37.0758 25.7726 36.5813 25.856 36.0856 25.8352C35.0646 25.8352 34.0855 25.4296 33.3636 24.7077C32.6417 23.9858 32.2361 23.0067 32.2361 21.9858C32.2361 20.9648 32.6417 19.9857 33.3636 19.2638C34.0855 18.5419 35.0646 18.1363 36.0856 18.1363C37.0643 18.1218 38.0094 18.4935 38.716 19.1709L39.7345 18.1524C39.2565 17.6796 38.689 17.307 38.0652 17.0564C37.4414 16.8058 36.7738 16.6822 36.1016 16.6928C35.3887 16.6651 34.6775 16.7815 34.0106 17.0352C33.3437 17.2889 32.7349 17.6746 32.2207 18.1692C31.7065 18.6638 31.2974 19.2572 31.018 19.9137C30.7385 20.5701 30.5945 21.2763 30.5945 21.9898C30.5945 22.7033 30.7385 23.4094 31.018 24.0659C31.2974 24.7224 31.7065 25.3157 32.2207 25.8103C32.7349 26.3049 33.3437 26.6907 34.0106 26.9444C34.6775 27.198 35.3887 27.3145 36.1016 27.2868C36.7876 27.3142 37.4717 27.1961 38.1089 26.9404C38.746 26.6847 39.3219 26.2972 39.7987 25.8031C40.6408 24.878 41.0896 23.6612 41.0497 22.4108C41.0526 22.1099 41.0285 21.8093 40.9776 21.5126H36.1016ZM72.4387 22.6354C72.2295 22.0201 71.8384 21.4828 71.3171 21.0947C70.7958 20.7066 70.169 20.486 69.5195 20.462C69.0808 20.4612 68.6466 20.5503 68.2438 20.7239C67.8409 20.8975 67.4779 21.1519 67.1773 21.4713C66.8766 21.7908 66.6447 22.1685 66.4958 22.5811C66.3469 22.9938 66.2842 23.4326 66.3117 23.8704C66.3048 24.6025 66.535 25.3171 66.9678 25.9076C67.4006 26.4981 68.0128 26.9327 68.7129 27.1465C69.4131 27.3604 70.1637 27.342 70.8526 27.0941C71.5414 26.8461 72.1316 26.382 72.5349 25.7711L71.3721 24.9691C71.1987 25.258 70.9528 25.4966 70.6588 25.6612C70.3648 25.8258 70.0329 25.9107 69.6959 25.9074C69.3484 25.9217 69.0045 25.8306 68.7097 25.646C68.4149 25.4613 68.1828 25.1918 68.0439 24.8729L72.6071 22.9882L72.4387 22.6354ZM67.7873 23.7742C67.771 23.5251 67.8046 23.2752 67.8861 23.0393C67.9676 22.8033 68.0954 22.586 68.262 22.4C68.4285 22.214 68.6305 22.0632 68.856 21.9563C69.0816 21.8493 69.3263 21.7885 69.5757 21.7773C69.8341 21.7615 70.0914 21.8223 70.3153 21.9521C70.5393 22.082 70.72 22.275 70.8347 22.5071L67.7873 23.7742ZM64.0822 27.0783H65.5819V17.0537H64.0822V27.0783ZM61.6282 21.2239H61.572C61.348 20.9688 61.0715 20.765 60.7615 20.6266C60.4514 20.4882 60.1152 20.4184 59.7756 20.4219C58.8992 20.4644 58.0728 20.8425 57.4676 21.4778C56.8623 22.1131 56.5247 22.9569 56.5247 23.8343C56.5247 24.7117 56.8623 25.5555 57.4676 26.1908C58.0728 26.8261 58.8992 27.2042 59.7756 27.2467C60.1156 27.2535 60.453 27.1851 60.7635 27.0465C61.074 26.9079 61.3501 26.7024 61.572 26.4447H61.6282V26.9339C61.6282 28.2411 60.9305 28.9388 59.8077 28.9388C59.4327 28.9306 59.0685 28.8111 58.7615 28.5955C58.4545 28.3798 58.2185 28.0779 58.0835 27.7278L56.7843 28.2652C57.0245 28.8684 57.4421 29.3846 57.982 29.7455C58.5218 30.1063 59.1584 30.2948 59.8077 30.2861C61.564 30.2861 63.0156 29.2516 63.0156 26.7334V20.6625H61.6282V21.2239ZM59.9039 25.9395C59.3785 25.9067 58.8853 25.6749 58.5248 25.2912C58.1643 24.9075 57.9636 24.4009 57.9636 23.8744C57.9636 23.3479 58.1643 22.8413 58.5248 22.4576C58.8853 22.0739 59.3785 21.8421 59.9039 21.8093C60.1608 21.8204 60.4127 21.8831 60.6449 21.9935C60.877 22.104 61.0845 22.26 61.2551 22.4523C61.4257 22.6446 61.5559 22.8692 61.6379 23.1128C61.7199 23.3565 61.752 23.6141 61.7324 23.8704C61.7543 24.1276 61.7238 24.3865 61.6427 24.6316C61.5617 24.8766 61.4318 25.1027 61.2609 25.2961C61.0899 25.4895 60.8816 25.6463 60.6483 25.7568C60.4151 25.8674 60.1619 25.9296 59.9039 25.9395ZM79.4639 17.0537H75.8711V27.0783H77.3708V23.2769H79.4639C79.8913 23.3076 80.3204 23.25 80.7246 23.1075C81.1287 22.965 81.4992 22.7409 81.8128 22.4489C82.1265 22.157 82.3767 21.8035 82.5477 21.4106C82.7188 21.0177 82.8071 20.5938 82.8071 20.1653C82.8071 19.7368 82.7188 19.3129 82.5477 18.92C82.3767 18.5271 82.1265 18.1737 81.8128 17.8817C81.4992 17.5898 81.1287 17.3656 80.7246 17.2231C80.3204 17.0807 79.8913 17.023 79.4639 17.0537ZM79.4639 21.8655H77.3708V18.4491H79.496C79.7213 18.4491 79.9445 18.4935 80.1527 18.5797C80.3609 18.666 80.5501 18.7924 80.7095 18.9518C80.8689 19.1111 80.9953 19.3003 81.0815 19.5086C81.1678 19.7168 81.2122 19.9399 81.2122 20.1653C81.2122 20.3907 81.1678 20.6139 81.0815 20.8221C80.9953 21.0303 80.8689 21.2195 80.7095 21.3789C80.5501 21.5382 80.3609 21.6646 80.1527 21.7509C79.9445 21.8371 79.7213 21.8815 79.496 21.8815L79.4639 21.8655ZM88.7186 20.43C88.1724 20.3963 87.6284 20.5234 87.1538 20.7957C86.6791 21.0679 86.2947 21.4733 86.048 21.9617L87.3713 22.5151C87.505 22.274 87.7056 22.0768 87.949 21.9473C88.1923 21.8178 88.468 21.7615 88.7426 21.7853C88.933 21.7631 89.1259 21.779 89.3101 21.8321C89.4942 21.8852 89.666 21.9744 89.8153 22.0946C89.9646 22.2148 90.0885 22.3635 90.1797 22.5321C90.2709 22.7007 90.3276 22.8857 90.3465 23.0764V23.1727C89.8643 22.9192 89.3275 22.7871 88.7827 22.7877C87.3552 22.7877 85.8956 23.5897 85.8956 25.0493C85.9098 25.3595 85.9861 25.6638 86.1201 25.9439C86.2541 26.2241 86.443 26.4745 86.6757 26.6802C86.9083 26.8859 87.1799 27.0428 87.4744 27.1414C87.7688 27.2401 88.0801 27.2787 88.3898 27.2547C88.7661 27.2755 89.1412 27.1959 89.4766 27.0239C89.812 26.852 90.0956 26.594 90.2984 26.2763H90.3465V27.0783H91.7901V23.2208C91.7901 21.4645 90.4588 20.446 88.7506 20.446L88.7186 20.43ZM88.5341 25.9234C88.0449 25.9234 87.3632 25.6748 87.3632 25.0733C87.3632 24.2714 88.2133 23.9987 88.9672 23.9987C89.4436 23.987 89.9144 24.1033 90.3305 24.3355C90.2802 24.7711 90.0737 25.1736 89.7492 25.4685C89.4248 25.7634 89.0045 25.9307 88.5662 25.9395L88.5341 25.9234ZM97.051 20.6625L95.3348 25.0092H95.2867L93.5063 20.6625H91.9024L94.5729 26.7414L93.0492 30.1177H94.613L98.7191 20.6625H97.051ZM83.578 27.0783H85.0696V17.0537H83.578V27.0783Z" fill="white"/>
<path d="M8.79966 8.83145C8.5416 9.13657 8.40992 9.5288 8.43159 9.92783V27.2507C8.40494 27.6504 8.53723 28.0444 8.79966 28.3471L8.85448 28.4097L18.5575 18.7067V18.4718L8.85448 8.77663L8.79966 8.83145Z" fill="url(#paint0_linear_1_105)"/>
<path d="M21.768 21.94L18.5572 18.7057V18.4708L21.768 15.2365L21.8385 15.2834L25.6837 17.4605C26.7801 18.0792 26.7801 19.0973 25.6837 19.7238L21.8542 21.9009L21.768 21.94Z" fill="url(#paint1_linear_1_105)"/>
<path d="M21.8624 21.893L18.5576 18.5882L8.7998 28.346C9.0211 28.543 9.30435 28.6563 9.60044 28.6663C9.89653 28.6764 10.1868 28.5824 10.4209 28.4009L21.8624 21.893Z" fill="url(#paint2_linear_1_105)"/>
<path d="M21.8624 15.2837L10.4209 8.78374C10.1883 8.59964 9.89828 8.50343 9.60179 8.51202C9.30529 8.52061 9.02132 8.63346 8.7998 8.83073L18.5576 18.5885L21.8624 15.2837Z" fill="url(#paint3_linear_1_105)"/>
<path opacity="0.2" d="M21.7685 21.8222L10.4209 28.283C10.1953 28.4532 9.92038 28.5453 9.63775 28.5453C9.35513 28.5453 9.08021 28.4532 8.85462 28.283L8.7998 28.3378L8.85462 28.4005C9.08021 28.5707 9.35513 28.6628 9.63775 28.6628C9.92038 28.6628 10.1953 28.5707 10.4209 28.4005L21.8624 21.8926L21.7685 21.8222Z" fill="black"/>
<path opacity="0.12" d="M8.80006 28.2372C8.54851 27.9266 8.42524 27.5316 8.45548 27.133V27.2505C8.42883 27.6502 8.56112 28.0442 8.82355 28.3469L8.87837 28.2921L8.80006 28.2372Z" fill="black"/>
<path opacity="0.12" d="M25.684 19.6063L21.7683 21.8226L21.8388 21.893L25.684 19.7159C25.9109 19.62 26.1078 19.4646 26.2539 19.2661C26.4 19.0676 26.4899 18.8335 26.5141 18.5882C26.4651 18.8111 26.3645 19.0193 26.2203 19.1962C26.0761 19.373 25.8924 19.5135 25.684 19.6063Z" fill="black"/>
<path opacity="0.25" d="M10.4207 8.89301L25.684 17.5701C25.8924 17.6629 26.0761 17.8034 26.2203 17.9802C26.3645 18.1571 26.4651 18.3653 26.5141 18.5882C26.4899 18.3429 26.4 18.1087 26.2539 17.9103C26.1078 17.7118 25.9109 17.5564 25.684 17.4605L10.4207 8.78337C9.33218 8.15686 8.43158 8.67373 8.43158 9.92674V10.0442C8.45507 8.7912 9.33218 8.27433 10.4207 8.89301Z" fill="white"/>
<rect x="0.5" y="1.35408" width="105.062" height="34.4723" rx="6.84277" stroke="white"/>
<defs>
<linearGradient id="paint0_linear_1_105" x1="17.696" y1="9.74771" x2="4.55509" y2="22.8886" gradientUnits="userSpaceOnUse">
<stop stop-color="#00A0FF"/>
<stop offset="0.01" stop-color="#00A1FF"/>
<stop offset="0.26" stop-color="#00BEFF"/>
<stop offset="0.51" stop-color="#00D2FF"/>
<stop offset="0.76" stop-color="#00DFFF"/>
<stop offset="1" stop-color="#00E3FF"/>
</linearGradient>
<linearGradient id="paint1_linear_1_105" x1="27.1168" y1="18.5882" x2="8.17288" y2="18.5882" gradientUnits="userSpaceOnUse">
<stop stop-color="#FFE000"/>
<stop offset="0.41" stop-color="#FFBD00"/>
<stop offset="0.78" stop-color="#FFA500"/>
<stop offset="1" stop-color="#FF9C00"/>
</linearGradient>
<linearGradient id="paint2_linear_1_105" x1="20.0691" y1="20.3894" x2="2.245" y2="38.2057" gradientUnits="userSpaceOnUse">
<stop stop-color="#FF3A44"/>
<stop offset="1" stop-color="#C31162"/>
</linearGradient>
<linearGradient id="paint3_linear_1_105" x1="6.34077" y1="3.06689" x2="14.2974" y2="11.0235" gradientUnits="userSpaceOnUse">
<stop stop-color="#32A071"/>
<stop offset="0.07" stop-color="#2DA771"/>
<stop offset="0.48" stop-color="#15CF74"/>
<stop offset="0.8" stop-color="#06E775"/>
<stop offset="1" stop-color="#00F076"/>
</linearGradient>
</defs>
</svg>
