<svg width="27" height="18" viewBox="0 0 27 18" fill="none" xmlns="http://www.w3.org/2000/svg">
<g clip-path="url(#clip0_103_91)">
<path d="M12.891 8.81553V6.57339L14.2843 6.57288C14.4379 6.5686 14.5905 6.59677 14.7323 6.65552C14.874 6.71428 15.0015 6.80228 15.1064 6.91369C15.2121 7.0157 15.2961 7.13772 15.3534 7.27254C15.4108 7.40735 15.4403 7.55221 15.4403 7.69856C15.4403 7.84491 15.4108 7.98977 15.3534 8.12458C15.2961 8.2594 15.2121 8.38142 15.1064 8.48343C15.0002 8.59255 14.8722 8.67844 14.7307 8.73563C14.5891 8.79281 14.4371 8.82002 14.2843 8.81553H12.891Z" fill="white"/>
<path d="M17.1263 10.8603C17.1257 10.9654 17.1504 11.069 17.1984 11.1626C17.2463 11.2562 17.3161 11.3371 17.4018 11.3985C17.5856 11.542 17.8137 11.618 18.0474 11.6137C18.398 11.6131 18.7341 11.4745 18.982 11.2283C19.2572 10.971 19.3949 10.6692 19.3949 10.3227C19.1358 10.1178 18.7746 10.0153 18.3111 10.0153C17.9736 10.0153 17.6922 10.0961 17.4669 10.2577C17.2393 10.4217 17.1263 10.621 17.1263 10.8603Z" fill="white"/>
<path fill-rule="evenodd" clip-rule="evenodd" d="M2.25 0C1.00736 0 0 1.00736 0 2.25V15.75C0 16.9926 1.00736 18 2.25 18H24.75C25.9926 18 27 16.9926 27 15.75V2.25C27 1.00736 25.9926 0 24.75 0H2.25ZM12.891 12.2056V9.60476L14.2637 9.60424C14.8296 9.60459 15.3053 9.42231 15.6906 9.05742C15.883 8.88629 16.0359 8.67587 16.1388 8.44057C16.2417 8.20527 16.2921 7.95067 16.2866 7.6942C16.2905 7.43911 16.2392 7.18615 16.1364 6.95234C16.0336 6.71854 15.8816 6.50929 15.6906 6.33868C15.5015 6.15703 15.2781 6.01437 15.0331 5.91893C14.7882 5.8235 14.5267 5.77717 14.2637 5.78263H12.0601V12.2056H12.891ZM18.2012 7.66755C18.8153 7.66755 19.3001 7.83052 19.6555 8.15646C20.0109 8.4824 20.1884 8.92929 20.188 9.49713V12.2056H19.3933V11.5958H19.3572C19.0131 12.098 18.5556 12.3491 17.9845 12.3491C17.497 12.3491 17.0891 12.2056 16.7609 11.9186C16.6034 11.7869 16.4775 11.6219 16.3923 11.4358C16.3071 11.2496 16.2649 11.0469 16.2686 10.8424C16.2686 10.3877 16.4416 10.026 16.7877 9.75747C17.1338 9.48893 17.5959 9.35432 18.1739 9.35363C18.6672 9.35363 19.0735 9.44332 19.3928 9.62269V9.43409C19.3937 9.29471 19.3634 9.15686 19.3041 9.03054C19.2447 8.90423 19.1578 8.79262 19.0496 8.7038C18.8299 8.50694 18.5436 8.39953 18.2477 8.40297C17.7836 8.40297 17.4163 8.59737 17.1459 8.98618L16.4141 8.52853C16.8166 7.95454 17.4123 7.66755 18.2012 7.66755ZM21.9757 14.1428L24.75 7.81106H23.8453L22.5629 10.968H22.5449L21.2263 7.81106H20.3232L22.1475 11.9274L21.118 14.1428H21.9757ZM9.5335 9.0441C9.53381 8.79265 9.5124 8.54164 9.46951 8.29382H5.96547V9.71495H7.97242C7.93136 9.94192 7.84443 10.1583 7.71689 10.351C7.58935 10.5437 7.42384 10.7088 7.23033 10.8363C6.89696 11.0607 6.4676 11.1894 5.96549 11.1894C4.99633 11.1894 4.17373 10.5406 3.87958 9.66629C3.72407 9.20815 3.72404 8.712 3.87954 8.25386C4.1737 7.37956 4.99633 6.73073 5.96549 6.73073C6.49537 6.72214 7.00738 6.92096 7.39084 7.28422L8.45134 6.23106C7.77887 5.60381 6.888 5.25944 5.96549 5.27014C5.27676 5.27017 4.6016 5.4603 4.01537 5.81931C3.42915 6.17831 2.95494 6.69205 2.64568 7.30318C2.38552 7.81728 2.25 8.3847 2.25 8.96007C2.25 9.53544 2.38549 10.1028 2.64565 10.6169C2.95491 11.2281 3.42915 11.7418 4.01537 12.1008C4.6016 12.4598 5.27676 12.65 5.96549 12.65C6.96819 12.65 7.81246 12.323 8.42812 11.7593C9.12944 11.1171 9.5335 10.167 9.5335 9.0441Z" fill="white"/>
</g>
<defs>
<clipPath id="clip0_103_91">
<rect width="27" height="18" fill="white"/>
</clipPath>
</defs>
</svg>
