<svg width="107" height="36" viewBox="0 0 107 36" fill="none" xmlns="http://www.w3.org/2000/svg">
<path d="M22.1526 18.0814C22.1625 17.3143 22.3668 16.5621 22.7466 15.8949C23.1263 15.2276 23.6692 14.667 24.3246 14.2652C23.9082 13.6722 23.359 13.1842 22.7204 12.84C22.0818 12.4957 21.3715 12.3047 20.646 12.2821C19.0982 12.1201 17.5978 13.2056 16.809 13.2056C16.0051 13.2056 14.7907 12.2981 13.4831 12.325C12.6373 12.3522 11.813 12.5975 11.0905 13.0369C10.368 13.4763 9.77194 14.0948 9.36043 14.8322C7.57792 17.9098 8.90752 22.4328 10.615 24.9205C11.4694 26.1386 12.4678 27.4993 13.7743 27.4511C15.0527 27.3982 15.5302 26.6381 17.0734 26.6381C18.6023 26.6381 19.0502 27.4511 20.3832 27.4204C21.755 27.3982 22.6193 26.1968 23.4437 24.9672C24.0575 24.0992 24.5299 23.1399 24.8432 22.1248C24.0462 21.7886 23.3661 21.226 22.8876 20.507C22.4091 19.7879 22.1535 18.9444 22.1526 18.0814Z" fill="white"/>
<path d="M19.6347 10.6464C20.3826 9.75099 20.7511 8.60009 20.6619 7.43811C19.5192 7.5578 18.4636 8.10243 17.7055 8.96348C17.3349 9.38413 17.051 9.8735 16.8701 10.4036C16.6892 10.9337 16.6149 11.4942 16.6514 12.053C17.2229 12.0589 17.7884 11.9353 18.3051 11.6917C18.8219 11.448 19.2765 11.0906 19.6347 10.6464Z" fill="white"/>
<path d="M37.3987 24.4885H33.2033L32.1958 27.4551H30.4188L34.3926 16.4794H36.2388L40.2126 27.4551H38.4053L37.3987 24.4885ZM33.6378 23.1195H36.9634L35.324 18.305H35.2781L33.6378 23.1195Z" fill="white"/>
<path d="M48.8874 23.4559C48.8874 25.9426 47.5528 27.5403 45.5386 27.5403C45.0284 27.5669 44.521 27.4497 44.0744 27.2021C43.6279 26.9545 43.2603 26.5865 43.0138 26.1402H42.9757V30.1038H41.3285V19.4544H42.9229V20.7854H42.9531C43.211 20.3413 43.5848 19.9752 44.0348 19.7261C44.4847 19.477 44.9939 19.3541 45.5083 19.3707C47.545 19.3707 48.8874 20.9761 48.8874 23.4559ZM47.1944 23.4559C47.1944 21.8358 46.3548 20.7707 45.0738 20.7707C43.8153 20.7707 42.9687 21.8582 42.9687 23.4559C42.9687 25.0683 43.8153 26.148 45.0738 26.148C46.3548 26.148 47.1944 25.0907 47.1944 23.4559H47.1944Z" fill="white"/>
<path d="M57.7186 23.4559C57.7186 25.9426 56.3834 27.5403 54.3693 27.5403C53.8591 27.5669 53.3516 27.4497 52.9051 27.2021C52.4586 26.9545 52.091 26.5865 51.8445 26.1402H51.8063V30.1038H50.1592V19.4544H51.7535V20.7854H51.7838C52.0417 20.3413 52.4155 19.9752 52.8654 19.7261C53.3154 19.477 53.8246 19.3541 54.339 19.3707C56.3757 19.3707 57.7186 20.9761 57.7186 23.4559ZM56.0251 23.4559C56.0251 21.8358 55.1855 20.7707 53.9045 20.7707C52.646 20.7707 51.7994 21.8582 51.7994 23.4559C51.7994 25.0683 52.646 26.148 53.9045 26.148C55.1855 26.148 56.0251 25.0907 56.0251 23.4559Z" fill="white"/>
<path d="M63.5558 24.3979C63.6778 25.4863 64.7381 26.2009 66.1871 26.2009C67.5754 26.2009 68.5743 25.4863 68.5743 24.5049C68.5743 23.653 67.9719 23.1429 66.5454 22.7933L65.119 22.4506C63.0979 21.9638 62.1596 21.0213 62.1596 19.4918C62.1596 17.598 63.8146 16.2973 66.1637 16.2973C68.4903 16.2973 70.0847 17.598 70.1384 19.4918H68.4756C68.3761 18.3965 67.4681 17.7353 66.1412 17.7353C64.8143 17.7353 63.9063 18.4042 63.9063 19.3778C63.9063 20.1538 64.4863 20.6104 65.9049 20.9599L67.1175 21.2569C69.3758 21.7894 70.3132 22.694 70.3132 24.2994C70.3132 26.3528 68.6738 27.6389 66.065 27.6389C63.6241 27.6389 61.9761 26.383 61.8696 24.3978L63.5558 24.3979Z" fill="white"/>
<path d="M73.8702 17.5601V19.4538H75.3962V20.7545H73.8702V25.166C73.8702 25.8514 74.1758 26.1707 74.8466 26.1707C75.0278 26.1676 75.2086 26.1549 75.3884 26.1327V27.4257C75.0868 27.4819 74.7803 27.5073 74.4735 27.5017C72.8489 27.5017 72.2153 26.8931 72.2153 25.3412V20.7545H71.0485V19.4538H72.2153V17.5601H73.8702Z" fill="white"/>
<path d="M76.2797 23.4557C76.2797 20.9379 77.7667 19.3558 80.0856 19.3558C82.4122 19.3558 83.8923 20.9379 83.8923 23.4557C83.8923 25.9804 82.42 27.5556 80.0856 27.5556C77.752 27.5556 76.2797 25.9804 76.2797 23.4557ZM82.214 23.4557C82.214 21.7286 81.4203 20.7092 80.0856 20.7092C78.7509 20.7092 77.9572 21.7363 77.9572 23.4557C77.9572 25.1897 78.7509 26.2013 80.0856 26.2013C81.4203 26.2013 82.214 25.1897 82.214 23.4557H82.214Z" fill="white"/>
<path d="M85.249 19.4543H86.82V20.8163H86.8581C86.9644 20.391 87.2143 20.015 87.5658 19.7517C87.9173 19.4885 88.349 19.3539 88.7883 19.3706C88.9781 19.3699 89.1674 19.3905 89.3527 19.4319V20.9683C89.113 20.8952 88.8631 20.8617 88.6126 20.869C88.3733 20.8593 88.1347 20.9014 87.9133 20.9923C87.6919 21.0833 87.4928 21.2209 87.3297 21.3958C87.1666 21.5707 87.0435 21.7788 86.9686 22.0056C86.8938 22.2325 86.8691 22.4728 86.8962 22.7101V27.4565H85.249L85.249 19.4543Z" fill="white"/>
<path d="M96.9476 25.106C96.726 26.5587 95.3074 27.5556 93.4923 27.5556C91.1579 27.5556 89.7089 25.9959 89.7089 23.4937C89.7089 20.9837 91.1657 19.3558 93.423 19.3558C95.6432 19.3558 97.0394 20.8766 97.0394 23.3029V23.8657H91.3717V23.965C91.3455 24.2595 91.3825 24.5561 91.4801 24.8353C91.5778 25.1144 91.7339 25.3697 91.9381 25.5841C92.1422 25.7984 92.3898 25.967 92.6643 26.0787C92.9389 26.1903 93.2341 26.2424 93.5304 26.2315C93.9196 26.2679 94.3102 26.178 94.6441 25.9752C94.978 25.7724 95.2374 25.4676 95.3835 25.106L96.9476 25.106ZM91.3794 22.7177H95.3913C95.4061 22.4529 95.3659 22.1879 95.2731 21.9394C95.1803 21.6908 95.037 21.4641 94.8522 21.2734C94.6674 21.0827 94.445 20.9321 94.1991 20.8312C93.9531 20.7302 93.6889 20.6811 93.423 20.6868C93.1548 20.6852 92.8889 20.7366 92.6407 20.838C92.3925 20.9394 92.1669 21.0888 91.9769 21.2776C91.7869 21.4665 91.6363 21.6909 91.5337 21.9381C91.4312 22.1853 91.3788 22.4502 91.3794 22.7177V22.7177Z" fill="white"/>
<path d="M33.5263 8.21759C33.8716 8.19288 34.2182 8.24491 34.5409 8.36991C34.8636 8.49492 35.1545 8.68979 35.3926 8.94047C35.6306 9.19115 35.8099 9.4914 35.9175 9.81955C36.0251 10.1477 36.0583 10.4956 36.0148 10.8381C36.0148 12.5229 35.1016 13.4914 33.5263 13.4914H31.616V8.21759H33.5263ZM32.4374 12.7456H33.4346C33.6813 12.7603 33.9283 12.7199 34.1574 12.6275C34.3866 12.535 34.5922 12.3927 34.7592 12.2111C34.9263 12.0294 35.0506 11.8128 35.1232 11.5772C35.1957 11.3415 35.2147 11.0927 35.1787 10.8488C35.2121 10.6059 35.1912 10.3586 35.1175 10.1247C35.0439 9.89078 34.9192 9.67601 34.7525 9.49576C34.5859 9.31552 34.3812 9.17427 34.1534 9.08214C33.9255 8.99001 33.6801 8.94928 33.4346 8.96287H32.4374V12.7456Z" fill="white"/>
<path d="M36.9425 11.4992C36.9174 11.2377 36.9474 10.9738 37.0306 10.7245C37.1138 10.4752 37.2483 10.2459 37.4255 10.0515C37.6027 9.85708 37.8187 9.70173 38.0597 9.59542C38.3006 9.48912 38.5612 9.4342 38.8247 9.4342C39.0881 9.4342 39.3487 9.48912 39.5897 9.59542C39.8306 9.70173 40.0466 9.85708 40.2238 10.0515C40.4011 10.2459 40.5356 10.4752 40.6187 10.7245C40.7019 10.9738 40.7319 11.2377 40.7068 11.4992C40.7324 11.761 40.7027 12.0253 40.6198 12.275C40.5368 12.5247 40.4024 12.7543 40.2251 12.9492C40.0479 13.144 39.8317 13.2997 39.5905 13.4062C39.3493 13.5127 39.0885 13.5678 38.8247 13.5678C38.5609 13.5678 38.3 13.5127 38.0588 13.4062C37.8176 13.2997 37.6014 13.144 37.4242 12.9492C37.2469 12.7543 37.1125 12.5247 37.0295 12.275C36.9466 12.0253 36.9169 11.761 36.9425 11.4992ZM39.8967 11.4992C39.8967 10.6365 39.508 10.132 38.826 10.132C38.1413 10.132 37.7562 10.6365 37.7562 11.4992C37.7562 12.3688 38.1413 12.8695 38.826 12.8695C39.508 12.8694 39.8967 12.3654 39.8967 11.4992H39.8967Z" fill="white"/>
<path d="M45.7108 13.4918H44.8937L44.0688 10.5606H44.0065L43.1851 13.4918H42.3758L41.2756 9.51187H42.0745L42.7895 12.5488H42.8484L43.6689 9.51187H44.4245L45.2451 12.5488H45.3074L46.0189 9.51187H46.8066L45.7108 13.4918Z" fill="white"/>
<path d="M47.7321 9.51093H48.4903V10.1432H48.5492C48.6491 9.9161 48.8175 9.72574 49.031 9.59864C49.2444 9.47154 49.4924 9.41402 49.7402 9.43411C49.9344 9.41955 50.1294 9.44875 50.3107 9.51954C50.4921 9.59033 50.6551 9.70091 50.7878 9.84307C50.9205 9.98523 51.0194 10.1553 51.0772 10.3408C51.1349 10.5262 51.1502 10.7223 51.1216 10.9144V13.4908H50.334V11.1116C50.334 10.472 50.0553 10.154 49.4728 10.154C49.3409 10.1478 49.2093 10.1702 49.0869 10.2196C48.9646 10.2689 48.8543 10.3441 48.7638 10.4399C48.6733 10.5357 48.6046 10.6498 48.5625 10.7746C48.5204 10.8993 48.5058 11.0317 48.5198 11.1625V13.4909H47.7321L47.7321 9.51093Z" fill="white"/>
<path d="M52.3761 7.95717H53.1638V13.4907H52.3761V7.95717Z" fill="white"/>
<path d="M54.2597 11.4993C54.2347 11.2377 54.2647 10.9738 54.3479 10.7245C54.4311 10.4752 54.5656 10.246 54.7428 10.0515C54.9201 9.85709 55.1361 9.70173 55.3771 9.59543C55.618 9.48912 55.8786 9.4342 56.1421 9.4342C56.4056 9.4342 56.6662 9.48912 56.9072 9.59543C57.1481 9.70173 57.3642 9.85709 57.5414 10.0515C57.7186 10.246 57.8531 10.4752 57.9363 10.7245C58.0195 10.9738 58.0496 11.2377 58.0245 11.4993C58.05 11.7611 58.0203 12.0254 57.9374 12.2751C57.8544 12.5248 57.7199 12.7544 57.5427 12.9492C57.3654 13.144 57.1492 13.2997 56.908 13.4062C56.6668 13.5128 56.4059 13.5678 56.1421 13.5678C55.8783 13.5678 55.6174 13.5128 55.3762 13.4062C55.135 13.2997 54.9188 13.144 54.7416 12.9492C54.5643 12.7544 54.4298 12.5248 54.3469 12.2751C54.2639 12.0254 54.2342 11.7611 54.2597 11.4993ZM57.2139 11.4993C57.2139 10.6366 56.8252 10.1321 56.1432 10.1321C55.4585 10.1321 55.0734 10.6366 55.0734 11.4993C55.0734 12.3689 55.4586 12.8695 56.1432 12.8695C56.8253 12.8695 57.2139 12.3654 57.2139 11.4993H57.2139Z" fill="white"/>
<path d="M58.8534 12.3654C58.8534 11.649 59.3883 11.236 60.3378 11.1773L61.4189 11.1152V10.7716C61.4189 10.3513 61.1402 10.1139 60.6018 10.1139C60.1621 10.1139 59.8575 10.2749 59.77 10.5563H59.0075C59.088 9.87267 59.7328 9.4342 60.6382 9.4342C61.6388 9.4342 62.2031 9.93093 62.2031 10.7716V13.4909H61.4449V12.9316H61.3826C61.2561 13.1323 61.0784 13.2958 60.8678 13.4056C60.6572 13.5154 60.4212 13.5675 60.1838 13.5565C60.0162 13.5739 59.8469 13.5561 59.6867 13.5042C59.5264 13.4523 59.3789 13.3675 59.2536 13.2553C59.1282 13.1431 59.0279 13.0059 58.9589 12.8526C58.89 12.6994 58.8541 12.5334 58.8534 12.3654ZM61.4189 12.0253V11.6926L60.4443 11.7547C59.8947 11.7914 59.6454 11.9779 59.6454 12.3287C59.6454 12.6869 59.957 12.8954 60.3855 12.8954C60.511 12.908 60.6378 12.8954 60.7584 12.8582C60.8789 12.821 60.9907 12.76 61.0871 12.6788C61.1836 12.5976 61.2626 12.498 61.3196 12.3857C61.3766 12.2734 61.4104 12.1509 61.4189 12.0253Z" fill="white"/>
<path d="M63.239 11.4991C63.239 10.2415 63.8873 9.4448 64.8956 9.4448C65.1451 9.43334 65.3926 9.49291 65.6093 9.61656C65.8261 9.7402 66.003 9.92281 66.1195 10.143H66.1784V7.95717H66.966V13.4907H66.2113V12.8619H66.149C66.0235 13.0807 65.8403 13.261 65.6194 13.3834C65.3985 13.5058 65.1482 13.5656 64.8956 13.5563C63.8803 13.5564 63.239 12.7597 63.239 11.4991ZM64.0526 11.4991C64.0526 12.3432 64.4516 12.8512 65.119 12.8512C65.7828 12.8512 66.1931 12.3359 66.1931 11.5025C66.1931 10.673 65.7785 10.1504 65.119 10.1504C64.4559 10.1504 64.0526 10.6618 64.0526 11.4991H64.0526Z" fill="white"/>
<path d="M70.2232 11.4992C70.1981 11.2377 70.2281 10.9738 70.3113 10.7245C70.3945 10.4752 70.529 10.2459 70.7062 10.0515C70.8834 9.85708 71.0994 9.70173 71.3404 9.59542C71.5813 9.48912 71.8419 9.4342 72.1054 9.4342C72.3688 9.4342 72.6294 9.48912 72.8704 9.59542C73.1113 9.70173 73.3273 9.85708 73.5045 10.0515C73.6817 10.2459 73.8163 10.4752 73.8994 10.7245C73.9826 10.9738 74.0126 11.2377 73.9875 11.4992C74.0131 11.761 73.9834 12.0253 73.9005 12.275C73.8175 12.5247 73.6831 12.7543 73.5058 12.9492C73.3286 13.144 73.1124 13.2997 72.8712 13.4062C72.63 13.5127 72.3691 13.5678 72.1054 13.5678C71.8416 13.5678 71.5807 13.5127 71.3395 13.4062C71.0983 13.2997 70.8821 13.144 70.7049 12.9492C70.5276 12.7543 70.3932 12.5247 70.3102 12.275C70.2273 12.0253 70.1976 11.761 70.2232 11.4992ZM73.1773 11.4992C73.1773 10.6365 72.7887 10.132 72.1067 10.132C71.422 10.132 71.0369 10.6365 71.0369 11.4992C71.0369 12.3688 71.422 12.8695 72.1067 12.8695C72.7887 12.8694 73.1773 12.3654 73.1773 11.4992Z" fill="white"/>
<path d="M75.0451 9.51093H75.8033V10.1432H75.8622C75.9621 9.9161 76.1305 9.72574 76.3439 9.59864C76.5574 9.47154 76.8054 9.41402 77.0532 9.43411C77.2474 9.41955 77.4424 9.44875 77.6237 9.51954C77.8051 9.59033 77.9681 9.70091 78.1008 9.84307C78.2335 9.98523 78.3324 10.1553 78.3902 10.3408C78.4479 10.5262 78.4631 10.7223 78.4346 10.9144V13.4908H77.647V11.1116C77.647 10.472 77.3683 10.154 76.7858 10.154C76.6539 10.1478 76.5223 10.1702 76.3999 10.2196C76.2776 10.2689 76.1673 10.3441 76.0768 10.4399C75.9863 10.5357 75.9176 10.6498 75.8755 10.7746C75.8334 10.8993 75.8188 11.0317 75.8328 11.1625V13.4909H75.0451V9.51093Z" fill="white"/>
<path d="M82.8849 8.51959V9.5286H83.7496V10.1902H82.8849V12.2367C82.8849 12.6536 83.0571 12.8361 83.4492 12.8361C83.5496 12.8358 83.6499 12.8298 83.7496 12.818V13.4723C83.6081 13.4975 83.4648 13.5109 83.3211 13.5124C82.4452 13.5124 82.0964 13.2051 82.0964 12.4378V10.1902H81.4628V9.52856H82.0964V8.51959H82.8849Z" fill="white"/>
<path d="M84.8259 7.95717H85.6067V10.1504H85.669C85.7737 9.9212 85.9467 9.72977 86.1645 9.60219C86.3823 9.4746 86.6342 9.41708 86.8859 9.43745C87.0791 9.42697 87.2722 9.45913 87.4515 9.53165C87.6308 9.60416 87.7918 9.71523 87.9231 9.85695C88.0544 9.99866 88.1527 10.1675 88.211 10.3515C88.2693 10.5354 88.2862 10.73 88.2604 10.9212V13.4907H87.472V11.115C87.472 10.4792 87.1751 10.1573 86.6185 10.1573C86.4832 10.1462 86.347 10.1648 86.2196 10.2117C86.0921 10.2586 85.9765 10.3327 85.8808 10.4288C85.7851 10.5249 85.7116 10.6407 85.6654 10.7681C85.6193 10.8955 85.6016 11.0314 85.6136 11.1663V13.4907H84.826L84.8259 7.95717Z" fill="white"/>
<path d="M92.8531 12.4164C92.7461 12.7801 92.5142 13.0948 92.1981 13.3053C91.8819 13.5158 91.5016 13.6087 91.1237 13.5678C90.8608 13.5747 90.5995 13.5245 90.3579 13.4206C90.1164 13.3168 89.9005 13.1617 89.725 12.9663C89.5496 12.7708 89.419 12.5396 89.3421 12.2888C89.2653 12.0379 89.2441 11.7734 89.2801 11.5136C89.2451 11.2529 89.2666 10.9878 89.3433 10.7362C89.4199 10.4846 89.5499 10.2524 89.7244 10.0552C89.8989 9.85805 90.1138 9.70057 90.3546 9.59344C90.5955 9.48631 90.8566 9.43203 91.1203 9.43427C92.2308 9.43427 92.9007 10.1908 92.9007 11.4406V11.7147H90.0825V11.7587C90.0701 11.9048 90.0885 12.0518 90.1365 12.1903C90.1845 12.3289 90.2609 12.4559 90.361 12.5632C90.4611 12.6706 90.5826 12.7559 90.7176 12.8137C90.8527 12.8715 90.9984 12.9005 91.1454 12.8989C91.3338 12.9214 91.5247 12.8876 91.6937 12.8017C91.8628 12.7158 92.0024 12.5816 92.0949 12.4164L92.8531 12.4164ZM90.0824 11.1338H92.0983C92.1083 11.0002 92.09 10.866 92.0449 10.7399C91.9997 10.6138 91.9286 10.4984 91.8361 10.4013C91.7435 10.3042 91.6317 10.2275 91.5077 10.1761C91.3836 10.1247 91.2502 10.0997 91.1159 10.1028C90.9797 10.1011 90.8445 10.1266 90.7183 10.1778C90.5921 10.229 90.4775 10.3049 90.3812 10.401C90.2849 10.4971 90.2088 10.6114 90.1575 10.7373C90.1062 10.8631 90.0807 10.9979 90.0825 11.1338H90.0824Z" fill="white"/>
<rect x="0.5" y="1" width="105.062" height="34.3541" rx="6.84277" stroke="white"/>
</svg>
