<svg width="27" height="18" viewBox="0 0 27 18" fill="none" xmlns="http://www.w3.org/2000/svg">
<g clip-path="url(#clip0_103_121)">
<path d="M20.1567 9.78325C20.1913 10.2753 20.6179 10.6463 21.11 10.6122C21.1295 10.6122 21.1489 10.6117 21.1684 10.6101C21.6605 10.576 22.0314 10.1488 21.9974 9.65671C21.9633 9.16463 21.5361 8.79368 21.044 8.82775C21.0246 8.82775 21.0051 8.82883 20.9862 8.82991C20.4935 8.86452 20.1226 9.29117 20.1567 9.78325Z" fill="white"/>
<path d="M10.3415 10.6051C9.84835 10.6072 9.44657 10.2092 9.44441 9.71554C9.44225 9.22183 9.84078 8.8206 10.3339 8.81844C10.8271 8.81627 11.2289 9.2148 11.231 9.70797V9.70959C11.2148 10.1952 10.8266 10.5861 10.3415 10.6051Z" fill="white"/>
<path fill-rule="evenodd" clip-rule="evenodd" d="M2.25 0C1.00736 0 0 1.00736 0 2.25V15.75C0 16.9926 1.00736 18 2.25 18H24.75C25.9926 18 27 16.9926 27 15.75V2.25C27 1.00736 25.9926 0 24.75 0H2.25ZM5.20987 11.4428H6.61149L5.04764 9.29174C5.79225 8.54119 6.20701 7.52512 6.20106 6.46796H5.09577C5.10064 7.37425 4.67723 8.22917 3.95425 8.77533L3.51571 9.10573L5.20987 11.4428ZM3.37963 6.46798H2.25002V11.4429H3.37963V6.46798ZM6.94959 6.46798H8.01921V11.4429H6.94959V6.46798ZM18.8326 9.24776V11.4286H17.8112V9.61384C17.8112 9.11528 17.5527 8.8449 17.1082 8.8449C17.0725 8.83895 17.0357 8.83895 17 8.8449C16.6031 8.88113 16.309 9.22937 16.3393 9.62628V11.4345H15.3118V7.99161H16.3274V8.38202C16.5772 8.05812 16.9703 7.87805 17.3786 7.9013C17.3937 7.9013 17.4102 7.89981 17.4267 7.89833C17.4432 7.89684 17.4597 7.89535 17.4748 7.89535C18.2232 7.89427 18.831 8.49937 18.8326 9.24776ZM22.0055 8.22157V7.99932L23.0269 7.99878V11.4417H22.0055V11.2195C21.3917 11.6364 20.5855 11.6364 19.9712 11.2195C19.1433 10.6576 18.9275 9.53126 19.4894 8.70338C20.0512 7.87549 21.1776 7.65973 22.0055 8.22157ZM24.75 10.8738V10.8576C24.7489 10.5072 24.4634 10.2239 24.113 10.2249H24.1076C23.7513 10.2233 23.4603 10.5104 23.4587 10.8673C23.4565 11.2237 23.7448 11.5146 24.1011 11.5162C24.4575 11.5179 24.7484 11.2302 24.75 10.8738ZM14.8367 9.00043V8.00329C14.4517 7.99626 14.0834 8.16119 13.833 8.45373V8.00329H12.7937V11.4457H13.8395V9.83534C13.8395 9.29459 14.4225 9.00043 14.8248 9.00043H14.8367ZM11.237 7.99163V8.21388C10.9401 8.0084 10.5886 7.89754 10.2274 7.89538C9.22541 7.91268 8.42672 8.73895 8.44457 9.74095C8.46133 10.7186 9.24974 11.5076 10.2274 11.5243C10.5881 11.5243 10.9396 11.4156 11.237 11.2118V11.434H12.2585V7.99109L11.237 7.99163Z" fill="white"/>
</g>
<defs>
<clipPath id="clip0_103_121">
<rect width="27" height="18" fill="white"/>
</clipPath>
</defs>
</svg>
