<svg width="27" height="18" viewBox="0 0 27 18" fill="none" xmlns="http://www.w3.org/2000/svg">
<g clip-path="url(#clip0_103_147)">
<path fill-rule="evenodd" clip-rule="evenodd" d="M2.25 0C1.00736 0 0 1.00736 0 2.25V15.75C0 16.9926 1.00736 18 2.25 18H24.75C25.9926 18 27 16.9926 27 15.75V2.25C27 1.00736 25.9926 0 24.75 0H2.25ZM17.7989 15.7357C21.4879 15.723 24.4222 12.684 24.3599 8.94031C24.298 5.21544 21.2628 2.17804 17.5738 2.19068C16.0167 2.19601 14.5983 2.74646 13.4825 3.65333L13.5175 3.68127L13.3189 3.68196C12.1767 2.79295 10.7485 2.25907 9.20109 2.26437C5.51208 2.27701 2.57785 5.31604 2.64006 9.05972C2.70227 12.8034 5.73717 15.822 9.42618 15.8094C10.9833 15.804 12.4017 15.2536 13.5175 14.3467L13.482 14.3188L13.6811 14.3181C14.8233 15.2071 16.2515 15.741 17.7989 15.7357Z" fill="white"/>
</g>
<defs>
<clipPath id="clip0_103_147">
<rect width="27" height="18" fill="white"/>
</clipPath>
</defs>
</svg>
