<svg width="27" height="18" viewBox="0 0 27 18" fill="none" xmlns="http://www.w3.org/2000/svg">
<g clip-path="url(#clip0_103_220)">
<path d="M0 2.25C0 1.00736 1.00736 0 2.25 0H24.75C25.9926 0 27 1.00736 27 2.25V15.75C27 16.9926 25.9926 18 24.75 18H2.25C1.00736 18 0 16.9926 0 15.75V2.25Z" fill="white"/>
<path d="M19.1885 10.1168L18.6456 10.5286L18.1041 10.1515C18.1041 10.1119 18.1041 10.0698 18.1017 10.0277C18.1017 9.9881 18.1017 9.94601 18.0992 9.90393C18.0645 8.92848 17.8169 7.88371 17.3218 7.11871C16.9405 6.53195 16.4528 6.25219 15.9081 6.25219C15.3362 6.25219 14.8708 6.59385 14.3558 7.33657C14.341 7.35885 14.3237 7.38113 14.3088 7.40589C14.2989 7.41827 14.2915 7.43065 14.2816 7.4455C14.2568 7.48264 14.2321 7.51978 14.2073 7.55939C13.9845 7.90599 13.7518 8.30954 13.4992 8.75518C13.4769 8.79727 13.4522 8.83935 13.4299 8.88144C13.4225 8.89134 13.4151 8.90372 13.4101 8.91363L13.3581 9.00523L13.0511 9.54742C12.3307 10.8224 12.1475 11.1146 11.7885 11.5924C11.1572 12.4317 10.6175 12.751 9.90691 12.751C9.06516 12.751 8.5304 12.3871 8.20112 11.8375C7.93126 11.3919 7.80005 10.8051 7.80005 10.1366L9.0305 10.1787C9.0305 10.6145 9.12458 10.9462 9.25084 11.1492C9.41424 11.4117 9.65439 11.5132 9.90444 11.5132C10.2238 11.5132 10.5209 11.4463 11.0854 10.664C11.5384 10.0376 12.0732 9.1612 12.4322 8.60911L12.7714 8.09168L12.8432 7.97779L12.9174 7.86638L13.0412 7.67575C13.2294 7.38856 13.4324 7.08404 13.6502 6.79191C13.675 6.75725 13.6998 6.72258 13.727 6.68792C13.7518 6.65326 13.779 6.6186 13.8037 6.58642C14.0266 6.30171 14.2618 6.0368 14.5143 5.81894C14.9723 5.42034 15.465 5.2 15.9626 5.2C16.7969 5.2 17.5916 5.68277 18.2007 6.58889C18.8221 7.51483 19.1464 8.66853 19.1836 9.86927C19.186 9.90888 19.186 9.95097 19.186 9.99305C19.1885 10.0351 19.1885 10.0748 19.1885 10.1168Z" fill="black"/>
<path d="M8.77004 6.6746C9.33377 5.80685 10.1478 5.20004 11.0812 5.20004C11.6219 5.20004 12.1591 5.35973 12.7203 5.81725C13.3341 6.31735 13.9884 7.14078 14.8047 8.49799L15.0973 8.98497C15.8039 10.16 16.2057 10.7643 16.4412 11.0495C16.7437 11.4157 16.9326 11.5132 17.2079 11.5132C17.9061 11.5132 18.1041 10.8846 18.1041 10.1515L19.1885 10.1168C19.1885 10.8831 19.0372 11.4466 18.7798 11.8913C18.5312 12.3213 18.0464 12.7511 17.2309 12.7511C16.7239 12.7511 16.2748 12.6412 15.7782 12.1735C15.3964 11.8145 14.95 11.1768 14.6066 10.6036L13.5851 8.90055C13.0726 8.04592 12.6025 7.40841 12.3304 7.11999C12.0378 6.80953 11.6763 6.43817 11.076 6.43817C10.59 6.43817 10.1626 6.77536 9.81728 7.29601L8.77004 6.6746Z" fill="black"/>
<path d="M11.0804 6.43787C10.5954 6.43787 10.1686 6.77507 9.82398 7.29572C9.3365 8.03151 9.03792 9.12728 9.03792 10.1797C9.03792 10.6137 9.03718 10.9403 9.16171 11.1418L8.21102 11.8382C7.94216 11.3911 7.80005 10.82 7.80005 10.1515C7.80005 8.93591 8.1355 7.65327 8.77004 6.6746C9.33303 5.80685 10.1537 5.2 11.0854 5.2L11.0804 6.43787Z" fill="black"/>
<path d="M12.9174 7.86638L12.8432 7.97779L12.7714 8.09168C12.9471 8.34668 13.1477 8.65367 13.3581 9.00523L13.4101 8.91363C13.4151 8.90372 13.4225 8.89134 13.4299 8.88144C13.4522 8.83935 13.4769 8.79727 13.4992 8.75518C13.2937 8.41848 13.0957 8.11891 12.9174 7.86638ZM13.727 6.68792C13.6998 6.72258 13.675 6.75725 13.6502 6.79191C13.831 7.0172 14.0142 7.2722 14.2073 7.55939C14.2321 7.51978 14.2568 7.48264 14.2816 7.4455C14.2915 7.43065 14.2989 7.41827 14.3088 7.40589C14.3237 7.38113 14.341 7.35885 14.3558 7.33657C14.1677 7.05929 13.9845 6.80924 13.8037 6.58642C13.779 6.6186 13.7518 6.65326 13.727 6.68792Z" fill="black"/>
<path d="M12.9174 7.86638L12.8432 7.97779C13.0189 8.23032 13.217 8.53236 13.4299 8.88144C13.4522 8.83935 13.4769 8.79727 13.4992 8.75518C13.2937 8.41848 13.0957 8.11891 12.9174 7.86638ZM13.6502 6.79191C13.831 7.0172 14.0142 7.2722 14.2073 7.55939C14.2321 7.51978 14.2568 7.48264 14.2816 7.4455C14.0909 7.16327 13.9053 6.91074 13.727 6.68792C13.6998 6.72258 13.675 6.75725 13.6502 6.79191Z" fill="black"/>
</g>
<defs>
<clipPath id="clip0_103_220">
<rect width="27" height="18" fill="white"/>
</clipPath>
</defs>
</svg>
