<svg width="27" height="18" viewBox="0 0 27 18" fill="none" xmlns="http://www.w3.org/2000/svg">
<g clip-path="url(#clip0_103_157)">
<path d="M5.15236 7.82434C5.11563 8.0807 5.02054 8.24906 4.86675 8.32965C4.71293 8.41033 4.49324 8.45049 4.20766 8.45049L3.84512 8.46144L4.03192 7.28599C4.04649 7.20551 4.09407 7.16522 4.17469 7.16522H4.38347C4.67627 7.16522 4.88878 7.20742 5.02061 7.2915C5.15236 7.37578 5.19632 7.55344 5.15236 7.82434Z" fill="white"/>
<path d="M20.5537 10.2413C20.8173 10.2413 21.0426 10.1498 21.2293 9.96674C21.4161 9.78374 21.5094 9.56032 21.5095 9.2967C21.5095 9.08426 21.4415 8.91764 21.3062 8.79676C21.1706 8.67599 21.0003 8.61558 20.7954 8.61558C20.5244 8.61558 20.2972 8.70893 20.1143 8.89568C19.9312 9.08241 19.8396 9.31148 19.8396 9.58224C19.8396 9.78754 19.9055 9.94868 20.0374 10.0656C20.1693 10.1828 20.3413 10.2413 20.5537 10.2413Z" fill="white"/>
<path d="M8.74994 9.97218C8.56314 10.1518 8.33418 10.2413 8.06338 10.2413C7.85087 10.2413 7.6806 10.1828 7.55254 10.0656C7.4243 9.94868 7.36027 9.78754 7.36027 9.58224C7.36027 9.31148 7.45177 9.08241 7.63493 8.89568C7.8179 8.70893 8.04495 8.61555 8.31602 8.61555C8.52097 8.61555 8.69124 8.67599 8.82686 8.79676C8.96224 8.91764 9.03007 9.08426 9.03007 9.2967C9.03004 9.56767 8.93669 9.79294 8.74994 9.97218Z" fill="white"/>
<path d="M16.687 8.45038C17.0091 8.45038 17.2508 8.39548 17.412 8.28565C17.573 8.17572 17.6536 7.9671 17.6536 7.6594C17.6536 7.513 17.6098 7.40126 17.5218 7.32433C17.4339 7.24747 17.3422 7.20177 17.2472 7.18707C17.1519 7.17246 17.0237 7.16511 16.8626 7.16511H16.6649C16.5843 7.16511 16.5367 7.20547 16.5221 7.28592L16.3354 8.4614L16.687 8.45038Z" fill="white"/>
<path fill-rule="evenodd" clip-rule="evenodd" d="M0 2.25C0 1.00736 1.00736 0 2.25 0H24.75C25.9926 0 27 1.00736 27 2.25V15.75C27 16.9926 25.9926 18 24.75 18H2.25C1.00736 18 0 16.9926 0 15.75V2.25ZM6.05859 6.47856C5.77657 6.28468 5.40856 6.18751 4.95456 6.18751H3.19691C3.05773 6.18751 2.98084 6.25711 2.96623 6.39619L2.25224 10.8781C2.24482 10.9221 2.25583 10.9624 2.28518 10.999C2.31436 11.0356 2.35106 11.0539 2.39501 11.0539H3.22988C3.37632 11.0539 3.4568 10.9844 3.47157 10.8452L3.66928 9.63688C3.6765 9.57832 3.70225 9.53071 3.74621 9.49404C3.79012 9.45744 3.84506 9.4335 3.91097 9.42256C3.97688 9.41168 4.03903 9.40617 4.09773 9.40617C4.15625 9.40617 4.22579 9.4099 4.30648 9.41719C4.38696 9.42447 4.43827 9.42806 4.46026 9.42806C5.09004 9.42806 5.58437 9.25061 5.94328 8.89529C6.30202 8.54018 6.4816 8.04773 6.4816 7.41775C6.4816 6.98568 6.34047 6.67274 6.05859 6.47856ZM23.7942 6.1875H24.607C24.7022 6.1875 24.75 6.23887 24.75 6.34145V6.35237L24.036 10.8454C24.0211 10.9846 23.9442 11.054 23.8053 11.054H23.0801C23.0363 11.054 22.9995 11.0376 22.9703 11.0047C22.941 10.9717 22.9263 10.9371 22.9263 10.9003L22.9373 10.8783L23.6514 6.30841C23.6659 6.22779 23.7134 6.1875 23.7942 6.1875ZM14.7864 7.95624C14.7864 7.91972 14.7716 7.88488 14.7425 7.85202C14.7132 7.81908 14.6802 7.80249 14.6437 7.80249H13.7978C13.7171 7.80249 13.6512 7.83929 13.6 7.91232L12.4356 9.62608L11.9522 7.9783C11.9154 7.86122 11.835 7.80249 11.7106 7.80249H10.8865C10.8498 7.80249 10.8169 7.81901 10.7878 7.85202C10.7584 7.88489 10.7438 7.91981 10.7438 7.95628C10.7438 7.97102 10.8153 8.18699 10.958 8.60442C11.1008 9.02199 11.2546 9.4724 11.4194 9.95578C11.5842 10.4391 11.6702 10.6955 11.6775 10.7246C11.077 11.5449 10.7768 11.9843 10.7768 12.0428C10.7768 12.1381 10.8243 12.1857 10.9196 12.1857H11.7655C11.846 12.1857 11.9119 12.1491 11.9633 12.0759L14.7645 8.03314C14.7791 8.01863 14.7864 7.99311 14.7864 7.95624ZM21.828 7.80253H22.6629C22.7068 7.80253 22.7433 7.8209 22.7728 7.85743C22.802 7.8941 22.813 7.93429 22.8057 7.97828L22.3553 10.8455C22.3334 10.9847 22.2527 11.0542 22.1138 11.0542H21.3557C21.2604 11.0542 21.2129 10.9957 21.2129 10.8784C21.2129 10.8494 21.2201 10.8053 21.2349 10.7466C21.2494 10.688 21.2569 10.6552 21.2569 10.6478C21.1321 10.7944 20.9602 10.9115 20.7405 10.9994C20.5208 11.0872 20.3048 11.1312 20.0924 11.1312C19.6675 11.1312 19.3288 11.0032 19.0762 10.7467C18.8236 10.4905 18.6973 10.1463 18.6973 9.7141C18.6973 9.17955 18.8821 8.71437 19.252 8.31889C19.6217 7.92341 20.0704 7.72564 20.5976 7.72564C21.1031 7.72564 21.4507 7.87227 21.6413 8.16514C21.6633 7.92341 21.7253 7.80253 21.828 7.80253ZM10.1835 7.80253H9.34862C9.24594 7.80253 9.18382 7.92341 9.16183 8.16514C8.96409 7.87227 8.6162 7.72564 8.11821 7.72564C7.59091 7.72564 7.14229 7.92341 6.7725 8.31889C6.40261 8.71437 6.21777 9.17955 6.21777 9.7141C6.21777 10.1463 6.34412 10.4905 6.59679 10.7467C6.84946 11.0032 7.18809 11.1312 7.61291 11.1312C7.81786 11.1312 8.03037 11.0872 8.25004 10.9994C8.46973 10.9115 8.64551 10.7944 8.77733 10.6478C8.74795 10.7356 8.73338 10.8126 8.73338 10.8784C8.73338 10.9957 8.78096 11.0542 8.87619 11.0542H9.63416C9.7732 11.0542 9.85386 10.9847 9.87585 10.8455L10.3262 7.97828C10.3334 7.93429 10.3225 7.8941 10.2933 7.85743C10.264 7.8209 10.2274 7.80253 10.1835 7.80253ZM17.4339 6.1875C17.888 6.1875 18.2559 6.28467 18.5379 6.47855C18.8198 6.67269 18.9609 6.98567 18.9608 7.41774C18.9608 8.04772 18.7814 8.54017 18.4226 8.89528C18.0637 9.2506 17.5694 9.42805 16.9395 9.42805C16.9177 9.42805 16.8662 9.42446 16.7857 9.41718C16.7051 9.40989 16.6356 9.40616 16.577 9.40616C16.5183 9.40616 16.4562 9.41167 16.3903 9.42255C16.3243 9.4335 16.2695 9.45744 16.2255 9.49404C16.1815 9.5307 16.1559 9.57831 16.1486 9.63687L15.9509 10.9111C15.9215 11.0063 15.8629 11.0539 15.7751 11.0539H14.8743C14.8304 11.0539 14.7936 11.0356 14.7645 10.999C14.7351 10.9624 14.7241 10.9221 14.7315 10.8781L15.4456 6.39618C15.4601 6.25711 15.5407 6.1875 15.6872 6.1875H17.4339Z" fill="white"/>
</g>
<defs>
<clipPath id="clip0_103_157">
<rect width="27" height="18" fill="white"/>
</clipPath>
</defs>
</svg>
