<svg width="27" height="18" viewBox="0 0 27 18" fill="none" xmlns="http://www.w3.org/2000/svg">
<g clip-path="url(#clip0_103_184)">
<path fill-rule="evenodd" clip-rule="evenodd" d="M2.25 0C1.00736 0 0 1.00736 0 2.25V15.75C0 16.9926 1.00736 18 2.25 18H24.75C25.9926 18 27 16.9926 27 15.75V2.25C27 1.00736 25.9926 0 24.75 0H2.25ZM13.2101 9.45909C14.344 9.45909 15.1554 8.63288 15.1554 7.47549C15.1554 6.31637 14.344 5.49016 13.2149 5.49147H11.2148C11.203 5.49147 11.1913 5.4938 11.1804 5.49832C11.1695 5.50285 11.1596 5.50948 11.1513 5.51784C11.143 5.5262 11.1364 5.53612 11.1319 5.54704C11.1274 5.55795 11.1252 5.56964 11.1252 5.58143V11.0706C11.1253 11.0823 11.1277 11.0938 11.1322 11.1045C11.139 11.121 11.1505 11.135 11.1653 11.1449C11.1801 11.1548 11.1974 11.1601 11.2152 11.1602H11.9627C11.9865 11.1601 12.0093 11.1505 12.0261 11.1337C12.0429 11.1168 12.0523 11.094 12.0523 11.0702V9.54905C12.0522 9.53726 12.0545 9.52557 12.059 9.51466C12.0634 9.50374 12.07 9.49382 12.0783 9.48546C12.0867 9.4771 12.0965 9.47047 12.1074 9.46594C12.1183 9.46142 12.13 9.45909 12.1418 9.45909H13.2101ZM13.154 6.32376C13.7694 6.32376 14.2232 6.8101 14.2232 7.47549C14.2232 8.13915 13.7694 8.62593 13.154 8.62158H12.1418C12.1181 8.62158 12.0953 8.61215 12.0785 8.59536C12.0617 8.57857 12.0523 8.55579 12.0523 8.53205V6.41372C12.0522 6.40193 12.0545 6.39024 12.059 6.37933C12.0634 6.36842 12.07 6.3585 12.0783 6.35014C12.0867 6.34178 12.0965 6.33514 12.1074 6.33062C12.1183 6.32609 12.13 6.32376 12.1418 6.32376H13.154ZM15.4839 9.59326C15.4061 9.75296 15.3693 9.92959 15.3771 10.1071C15.3771 10.836 15.9117 11.2575 16.7218 11.2575C17.2725 11.2575 17.6162 11.0902 17.8292 10.8586C17.8385 10.8486 17.8506 10.8418 17.8639 10.8388C17.8772 10.8359 17.8911 10.8371 17.9037 10.8422C17.9163 10.8474 17.9271 10.8562 17.9346 10.8676C17.9421 10.8789 17.9459 10.8923 17.9457 10.9059V11.0706C17.9456 11.0824 17.9479 11.0941 17.9524 11.105C17.9569 11.1159 17.9635 11.1258 17.9718 11.1341C17.9887 11.1508 18.0115 11.1601 18.0352 11.1602H18.7449C18.769 11.1603 18.792 11.1509 18.8091 11.134C18.8262 11.1172 18.836 11.0942 18.8362 11.0702V8.86844C18.8362 7.83145 18.4151 7.28817 17.2486 7.28817C16.152 7.28817 15.6335 7.76191 15.5292 8.38515C15.5272 8.39795 15.528 8.41105 15.5315 8.42352C15.5351 8.43598 15.5414 8.44749 15.55 8.45725C15.5585 8.467 15.5691 8.47475 15.581 8.47994C15.5929 8.48513 15.6058 8.48764 15.6187 8.48728H16.3228C16.3421 8.48786 16.361 8.48202 16.3765 8.4707C16.3921 8.45937 16.4035 8.44319 16.4089 8.4247C16.4749 8.16175 16.7626 8.00095 17.2164 8.00095C17.6701 8.00095 17.9526 8.17914 17.9526 8.60072V8.81107L17.2399 8.83628C16.5705 8.85975 16.1146 8.97318 15.823 9.19267C15.6784 9.29586 15.5618 9.43356 15.4839 9.59326ZM17.9526 9.45909V9.62989C17.9526 10.2205 17.5889 10.553 16.973 10.553C16.5197 10.553 16.2602 10.3826 16.2602 10.0749C16.2602 9.73463 16.5432 9.53254 17.0295 9.50776L17.9526 9.45909ZM19.549 12.1859V12.8239C19.5471 12.8455 19.553 12.8671 19.5654 12.8848C19.5779 12.9025 19.5963 12.9153 19.6172 12.9208C19.7433 12.9551 19.8736 12.9708 20.004 12.9673C20.6916 12.9673 21.3161 12.7165 21.6803 11.736L23.2623 7.51765C23.2676 7.50375 23.2694 7.48878 23.2676 7.47403C23.2659 7.45927 23.2605 7.44516 23.2521 7.43291C23.2437 7.42066 23.2325 7.41062 23.2193 7.40366C23.2062 7.39669 23.1916 7.39301 23.1767 7.39292H22.4348C22.4156 7.39286 22.3968 7.39888 22.3812 7.41012C22.3656 7.42136 22.354 7.43724 22.3479 7.4555L21.4756 10.1271C21.4693 10.1449 21.4577 10.1603 21.4423 10.1712C21.4269 10.1821 21.4085 10.188 21.3896 10.188C21.3707 10.188 21.3523 10.1821 21.3369 10.1712C21.3215 10.1603 21.3098 10.1449 21.3035 10.1271L20.2991 7.44811C20.2926 7.431 20.281 7.41625 20.266 7.40579C20.251 7.39532 20.2331 7.38963 20.2148 7.38944H19.4977C19.4829 7.38956 19.4684 7.39327 19.4554 7.40024C19.4424 7.40722 19.4312 7.41725 19.4229 7.42947C19.4146 7.4417 19.4094 7.45575 19.4078 7.47043C19.4061 7.48511 19.408 7.49997 19.4134 7.51374L20.8924 11.3123C20.8991 11.332 20.8991 11.3534 20.8924 11.3731L20.8463 11.52C20.792 11.7029 20.6778 11.8622 20.5222 11.9725C20.3666 12.0829 20.1785 12.1378 19.9879 12.1285C19.8771 12.1281 19.7663 12.1176 19.6576 12.0972C19.6445 12.0947 19.631 12.095 19.618 12.0983C19.605 12.1016 19.5929 12.1076 19.5825 12.1161C19.5722 12.1246 19.5638 12.1352 19.558 12.1472C19.5522 12.1593 19.5491 12.1725 19.549 12.1859ZM3.78151 6.16599C4.47024 5.52298 5.3792 5.16835 6.32141 5.17507H6.32185C8.44886 5.17507 9.59799 6.83617 9.59799 8.39645C9.59799 10.1536 8.34281 11.4392 6.60695 11.4618H6.5874C5.12535 11.4531 3.98404 10.3996 3.98404 9.05663C3.98433 8.70323 4.06371 8.35438 4.21638 8.03566C4.36905 7.71694 4.59112 7.43644 4.86631 7.21472C4.88306 7.20072 4.90244 7.19021 4.92331 7.18382C4.94418 7.17743 4.96612 7.17529 4.98784 7.17751C5.00955 7.17974 5.0306 7.1863 5.04974 7.19679C5.06888 7.20729 5.08572 7.22152 5.09927 7.23863L5.54736 7.8045C5.57379 7.83733 5.58628 7.87922 5.58213 7.92116C5.57798 7.9631 5.55754 8.00174 5.52519 8.02876C5.37219 8.15299 5.24865 8.30963 5.1635 8.48737C5.07835 8.66512 5.0337 8.85954 5.03277 9.05663C5.03277 9.83677 5.70426 10.4274 6.59522 10.4274C7.74826 10.4109 8.55056 9.57991 8.55056 8.39862C8.55056 7.31208 7.78694 6.21163 6.32489 6.21163C5.97472 6.20831 5.6274 6.27483 5.30324 6.40729C4.97907 6.53975 4.68456 6.73549 4.43691 6.98307C4.42023 7.00007 4.40003 7.0132 4.37773 7.02155C4.35543 7.0299 4.33157 7.03326 4.30783 7.03139C4.28409 7.02953 4.26105 7.02249 4.24032 7.01076C4.2196 6.99903 4.2017 6.98291 4.18788 6.96352L3.76152 6.38113C3.73754 6.34919 3.7263 6.30947 3.73 6.2697C3.73369 6.22994 3.75206 6.19297 3.78151 6.16599Z" fill="white"/>
</g>
<defs>
<clipPath id="clip0_103_184">
<rect width="27" height="18" fill="white"/>
</clipPath>
</defs>
</svg>
