<svg width="27" height="18" viewBox="0 0 27 18" fill="none" xmlns="http://www.w3.org/2000/svg">
<g clip-path="url(#clip0_103_67)">
<path d="M21 9.95391C21.1645 9.55917 21.7237 8.07891 21.7237 8.07891C21.7237 8.1118 21.8882 7.68417 21.9539 7.45391L22.0855 8.04601C22.0855 8.04601 22.4474 9.65786 22.5132 9.9868H21V9.95391Z" fill="white"/>
<path fill-rule="evenodd" clip-rule="evenodd" d="M2.25 0C1.00736 0 0 1.00736 0 2.25V15.75C0 16.9926 1.00736 18 2.25 18H24.75C25.9926 18 27 16.9926 27 15.75V2.25C27 1.00736 25.9926 0 24.75 0H2.25ZM18.3026 10.1513C18.3026 11.5329 17.0526 12.4539 15.1118 12.4539C14.2895 12.4539 13.5 12.2895 13.0724 12.0921L13.3355 10.5789L13.5658 10.6776C14.1579 10.9408 14.5526 11.0395 15.2763 11.0395C15.8026 11.0395 16.3618 10.8421 16.3618 10.3816C16.3618 10.0855 16.1316 9.88814 15.4079 9.55919C14.7171 9.23025 13.7961 8.70393 13.7961 7.74998C13.7961 6.43419 15.0789 5.54604 16.8882 5.54604C17.5789 5.54604 18.1711 5.67761 18.5329 5.84209L18.2697 7.28946L18.1382 7.15788C17.8092 7.0263 17.3816 6.89472 16.7566 6.89472C16.0658 6.92761 15.7368 7.22367 15.7368 7.48683C15.7368 7.78288 16.1316 8.01314 16.7566 8.30919C17.8092 8.80261 18.3026 9.36182 18.3026 10.1513ZM23.2368 5.6447H21.8224C21.3947 5.6447 21.0658 5.77628 20.8684 6.20391L18.1711 12.3552H20.0789C20.0789 12.3552 20.4079 11.5329 20.4737 11.3355H22.8092C22.875 11.5658 23.0395 12.3223 23.0395 12.3223H24.75L23.2368 5.6447ZM2.28289 5.57895L2.25 5.71053C4.45395 6.23685 5.90132 7.51974 6.52632 9.09869L5.90132 6.13816C5.80263 5.71053 5.50658 5.57895 5.11184 5.57895H2.28289ZM10.5066 5.64472L7.64473 12.3224H5.70395L4.05921 6.73025C5.24342 7.48683 6.23026 8.67104 6.5921 9.4934L6.78947 10.1842L8.56579 5.61182H10.5066V5.64472ZM13.0724 5.61182H11.2632L10.1118 12.3224H11.9211L13.0724 5.61182Z" fill="white"/>
</g>
<defs>
<clipPath id="clip0_103_67">
<rect width="27" height="18" fill="white"/>
</clipPath>
</defs>
</svg>
