<svg xmlns="http://www.w3.org/2000/svg" width="64" height="44" fill="none" viewBox="0 0 64 44">
  <g clip-path="url(#a)">
    <path fill="#000" d="M7.578 0 0 44h56.063L63.64 0H7.578Z"/>
    <path fill="#fff" d="m18.537 13.105 2.184 7.346-.029.14-1.9-.001-2.019-6.43h-2.508l-1.319 6.43h-1.688l2.985-14.551h1.688l-1.233 6.01 2.518.001 4.418-6.01h1.831l-.029.139-4.9 6.926ZM42.376 13.108l2.184 7.345-.029.14H42.63l-2.018-6.43h-2.508l-1.319 6.429h-1.688l2.985-14.55h1.688l-1.233 6.01h2.518l4.418-6.01h1.83l-.028.14-4.9 6.926ZM26.701 5.985 23.705 20.59h-1.687l2.996-14.605h1.687Z"/>
    <mask id="b" width="64" height="44" x="0" y="0" maskUnits="userSpaceOnUse" style="mask-type:luminance">
      <path fill="#fff" d="M0 0h63.64v44H0V0Z"/>
    </mask>
    <g mask="url(#b)">
      <path fill="#fff" d="m36.366 5.988-.524 2.553h-3.73c-1.858 0-2.961 1.406-3.65 4.76-.683 3.332-.17 4.738 1.701 4.738h3.73l-.523 2.554h-3.73c-2.816 0-3.867-2.403-2.864-7.293 1.008-4.911 3.058-7.313 5.86-7.312h3.73ZM56.296 5.988l-.524 2.553h-4.945c-.872 0-1.404.714-1.613 1.73-.182.888-.055 1.731 1.074 1.732h2.258c2.63 0 2.792 2.207 2.361 4.306-.506 2.467-1.75 4.284-3.951 4.284h-5.374l.524-2.554h5.43c.915 0 1.485-.757 1.703-1.817.195-.952.044-1.817-1.142-1.817h-2.245c-2.572 0-2.724-2.186-2.307-4.22.497-2.423 1.719-4.198 3.863-4.197h4.888ZM17.306 23.146l-.524 2.553h-3.73c-1.858 0-2.961 1.406-3.65 4.76-.683 3.332-.17 4.738 1.702 4.738h3.73l-.524 2.554h-3.73c-2.816 0-3.867-2.402-2.864-7.292 1.008-4.912 3.058-7.314 5.86-7.313h3.73ZM23.947 23.151c2.172 0 2.684 2.034 2.205 4.371-.373 1.818-1.344 3.765-2.945 4.392l1.045 5.842H22.38l-1.043-5.647h-2.515c-.157 0-.265.108-.318.367l-1.084 5.28h-1.686l1.185-5.777c.338-1.645.932-2.316 1.99-2.316h3.759c.958 0 1.548-.994 1.76-2.033.214-1.038-.018-1.926-.948-1.926h-5.288l.524-2.553h5.23ZM36.333 23.151l-.524 2.553h-4.83c-1.015 0-1.605.714-1.836 1.839-.244 1.19.145 1.731 1.117 1.731h4.745l-.474 2.316h-4.789c-.972 0-1.592.583-1.836 1.773-.235 1.147.095 1.84 1.08 1.84h4.889l-.524 2.553h-4.888c-2.287 0-2.865-1.71-2.399-3.982.342-1.666 1.073-2.79 2.074-3.353-.785-.563-1.011-1.688-.683-3.29.48-2.336 1.775-3.98 4.047-3.98h4.83ZM39.8 23.151l-2.37 11.555c-.103.497.03.822.33.822.244 0 .478-.238.654-.606l4.257-9.325c.713-1.666 1.555-2.705 2.827-2.705 1.415 0 1.882 1.277 1.492 3.181l-1.771 8.633c-.102.498.03.822.317.822.257 0 .492-.237.667-.605l5.288-11.77h1.815l-5.482 12.16c-.727 1.665-1.555 2.704-2.841 2.704-1.43 0-1.868-1.277-1.473-3.203l1.767-8.611c.106-.52-.042-.844-.328-.844-.257 0-.496.26-.671.627l-4.258 9.326c-.699 1.666-1.526 2.704-2.813 2.704-1.443 0-1.882-1.277-1.486-3.203l2.392-11.662h1.686Z"/>
    </g>
  </g>
  <defs>
    <clipPath id="a">
      <path fill="#fff" d="M0 0h63.641v44H0z"/>
    </clipPath>
  </defs>
</svg>
